<?xml version="1.0" standalone="no"?>
<!DOCTYPE svg PUBLIC "-//W3C//DTD SVG 20010904//EN"
 "http://www.w3.org/TR/2001/REC-SVG-20010904/DTD/svg10.dtd">
<svg version="1.0" xmlns="http://www.w3.org/2000/svg"
 width="1280.000000pt" height="1107.000000pt" viewBox="0 0 1280.000000 1107.000000"
 preserveAspectRatio="xMidYMid meet">
<g transform="translate(0.000000,1107.000000) scale(0.100000,-0.100000)"
fill="#000000" stroke="none">
<path d="M5750 11039 c-1240 -71 -2589 -333 -3980 -771 -124 -39 -234 -73
-245 -76 -64 -17 -770 -262 -873 -303 -419 -167 -593 -316 -633 -539 -21 -120
9 -284 98 -529 74 -207 228 -554 312 -706 43 -79 88 -176 101 -216 44 -149
138 -317 219 -398 49 -47 247 -401 270 -483 56 -192 149 -366 251 -468 94 -93
181 -253 204 -374 38 -194 133 -414 236 -543 41 -51 56 -63 87 -68 21 -3 45
-10 53 -14 21 -11 218 -358 230 -406 52 -205 131 -381 231 -515 46 -62 71 -86
103 -101 41 -18 50 -30 148 -201 88 -154 107 -194 117 -250 30 -174 98 -347
196 -493 68 -102 114 -145 158 -145 18 0 37 -4 43 -8 5 -4 85 -136 177 -293
150 -258 168 -294 182 -365 41 -195 121 -379 230 -526 68 -93 84 -105 145
-116 l38 -7 415 -690 c489 -816 493 -822 566 -898 74 -79 134 -107 227 -107
39 0 89 6 110 14 22 7 218 102 437 210 219 108 406 196 416 196 29 0 233 -439
321 -690 18 -52 36 -99 40 -103 7 -8 83 179 116 286 10 31 22 57 27 57 5 0 37
-25 70 -56 59 -53 259 -194 276 -194 5 0 -30 78 -78 173 -138 275 -351 721
-351 733 0 5 406 205 903 444 1450 697 1551 746 2202 1070 1033 514 1742 894
2353 1261 194 117 212 132 212 172 0 62 -94 137 -172 137 -18 0 -38 4 -44 8
-37 23 -48 247 -19 387 36 175 129 413 245 626 101 185 244 412 276 440 11 9
101 53 202 99 100 46 182 85 182 87 0 20 -38 56 -138 131 -64 49 -369 275
-677 502 -2821 2083 -4737 3591 -5707 4493 l-147 137 -113 -1 c-62 -1 -174 -5
-248 -10z m-225 -154 c287 -71 525 -139 773 -220 l201 -66 158 -137 c1033
-897 2699 -2199 4899 -3829 l192 -142 7 -188 c11 -273 -1 -903 -17 -919 -7 -6
-233 -115 -503 -242 -1087 -511 -2244 -1071 -3660 -1771 -368 -182 -675 -330
-681 -329 -13 3 -217 231 -639 713 -1791 2047 -3220 3856 -4441 5620 -242 349
-454 665 -454 675 0 14 10 18 221 86 1304 419 2417 663 3624 793 44 5 85 9 90
10 6 0 110 -24 230 -54z m-4290 -1745 c0 -12 -19 -17 -80 -22 -212 -17 -362
-122 -460 -321 -121 -245 -133 -579 -34 -887 28 -85 98 -221 149 -288 44 -58
50 -82 20 -82 -64 0 -199 240 -251 447 -83 330 -43 673 105 896 109 163 317
279 491 274 46 -2 60 -6 60 -17z m550 -735 c0 -17 -11 -21 -82 -32 -150 -21
-241 -63 -340 -157 -247 -233 -335 -730 -208 -1171 32 -111 119 -290 180 -370
47 -62 53 -87 22 -93 -25 -5 -51 20 -110 107 -97 145 -163 319 -199 526 -17
101 -19 147 -15 290 7 236 48 402 139 564 59 104 199 245 290 290 96 48 181
70 258 68 58 -2 65 -4 65 -22z m586 -791 c24 -29 -2 -48 -86 -62 -162 -27
-258 -77 -381 -197 -130 -128 -215 -286 -269 -500 -95 -372 -35 -798 150
-1074 87 -129 82 -118 64 -137 -27 -26 -55 -8 -108 67 -227 323 -291 814 -159
1227 80 252 212 443 388 562 140 95 364 159 401 114z m659 -909 c28 -34 -2
-55 -110 -75 -334 -62 -604 -393 -697 -855 -25 -127 -25 -435 0 -555 42 -199
119 -376 223 -515 47 -64 53 -85 29 -105 -26 -21 -59 3 -116 82 -106 150 -187
352 -225 561 -23 127 -23 379 1 512 86 490 363 849 729 945 88 23 149 25 166
5z m721 -1015 c24 -13 25 -42 2 -62 -10 -8 -47 -21 -83 -28 -331 -62 -642
-375 -774 -775 -48 -147 -67 -253 -73 -412 -11 -295 47 -525 184 -730 93 -138
89 -131 77 -150 -6 -11 -23 -18 -40 -18 -24 0 -38 12 -82 70 -218 290 -293
711 -197 1112 65 271 186 500 359 681 148 154 304 250 486 296 110 29 115 29
141 16z m8489 -172 c0 -7 -35 -69 -76 -138 -42 -69 -116 -206 -165 -305 -142
-288 -209 -522 -209 -728 0 -128 19 -216 65 -308 20 -40 34 -78 31 -85 -3 -7
-60 -39 -128 -72 -68 -33 -629 -310 -1248 -617 -1352 -670 -2497 -1235 -3455
-1707 -686 -338 -710 -349 -725 -330 -8 11 -44 60 -80 108 -76 104 -209 245
-298 317 l-64 50 -46 -22 c-26 -13 -130 -66 -232 -119 l-185 -96 68 -12 c38
-7 90 -23 115 -36 65 -31 165 -136 243 -254 81 -121 89 -137 81 -151 -8 -12
-594 -297 -656 -319 -56 -20 -114 -17 -171 10 -62 29 -89 58 -158 168 -80 128
-102 205 -101 353 0 110 3 127 33 207 51 137 134 253 295 414 268 268 533 444
1347 897 495 275 1233 645 2809 1409 1106 537 2876 1377 2903 1378 4 0 7 -6 7
-12z m-7646 -1024 c30 -30 10 -69 -42 -80 -138 -29 -246 -75 -360 -151 -387
-257 -631 -764 -609 -1262 11 -252 81 -459 221 -654 31 -43 56 -87 56 -97 0
-11 -11 -27 -25 -36 -23 -15 -27 -15 -49 0 -33 21 -147 194 -190 287 -82 180
-116 347 -116 566 0 511 262 1017 663 1281 180 118 406 191 451 146z"/>
<path d="M7092 9862 c-34 -9 -61 -19 -60 -23 2 -4 229 -183 505 -398 276 -215
538 -427 583 -471 158 -157 181 -240 68 -240 -39 0 -142 47 -208 94 -26 18
-303 237 -616 486 -313 249 -574 457 -580 461 -10 8 -123 -17 -137 -30 -6 -7
687 -576 1148 -943 160 -127 331 -228 444 -262 65 -19 196 -21 231 -3 36 18
37 58 4 123 -15 30 -25 57 -21 60 10 10 207 -148 212 -170 2 -12 6 -46 9 -77
9 -110 91 -230 254 -368 202 -172 369 -261 502 -269 132 -7 163 24 115 117
-29 59 -195 235 -330 351 -97 83 -2032 1570 -2049 1575 -6 1 -39 -4 -74 -13z
m1881 -1539 c245 -192 341 -292 324 -337 -9 -22 -71 -21 -125 4 -122 55 -287
201 -335 296 -37 72 -48 154 -21 154 3 0 74 -53 157 -117z"/>
<path d="M4618 9667 c-32 -18 -58 -35 -58 -39 0 -3 72 -75 160 -159 88 -83
160 -156 160 -162 0 -5 -8 -16 -17 -23 -17 -12 -16 -15 12 -44 24 -25 36 -30
67 -28 32 2 45 -4 76 -33 127 -121 758 -734 763 -743 12 -20 26 -157 17 -163
-10 -5 -22 5 -219 182 -67 61 -181 159 -253 219 -201 168 -765 611 -782 614
-8 2 -40 -15 -70 -38 -50 -38 -54 -43 -41 -58 179 -205 592 -792 609 -865 13
-61 46 -111 140 -212 84 -91 132 -174 126 -218 -2 -12 -15 -28 -29 -36 -24
-13 -31 -12 -82 13 -81 39 -157 114 -690 683 -264 283 -485 512 -491 510 -6
-2 -44 -12 -83 -22 -40 -11 -73 -21 -73 -24 1 -16 1066 -1165 1133 -1222 98
-85 176 -137 250 -167 102 -41 207 -42 248 -1 24 24 26 96 2 161 -9 26 -14 50
-12 53 3 2 34 -11 70 -30 95 -52 178 -75 268 -75 174 1 225 78 167 253 -13 40
-27 94 -30 120 -4 27 -14 73 -22 103 -8 31 -12 60 -9 65 4 5 58 -36 121 -91
201 -174 331 -240 470 -240 66 0 78 3 99 25 17 16 25 35 25 57 -1 44 -38 134
-89 211 -36 56 -49 87 -37 87 2 0 43 -23 91 -51 104 -61 242 -122 324 -144 69
-18 184 -20 230 -4 90 32 64 147 -75 332 -83 110 -301 336 -452 469 -65 56
-123 107 -130 113 -11 10 -8 21 19 59 18 25 38 46 45 46 6 0 236 -193 512
-430 275 -236 506 -430 513 -430 23 0 149 41 149 48 0 5 -261 228 -579 496
-542 456 -581 491 -595 534 -40 117 -7 143 136 102 26 -8 50 -11 54 -7 26 26
-93 152 -192 202 -72 36 -156 45 -184 20 -28 -26 -25 -50 17 -135 21 -41 39
-78 41 -82 12 -26 -32 2 -107 65 -47 40 -94 78 -103 86 -15 11 -29 11 -88 -4
-38 -9 -70 -20 -70 -24 0 -4 81 -76 180 -161 193 -165 204 -180 154 -219 -51
-40 -57 -38 -185 57 -222 164 -372 232 -514 232 -164 0 -204 -65 -131 -215 86
-178 363 -493 633 -719 89 -74 147 -149 194 -251 35 -74 33 -110 -6 -125 -53
-20 -149 30 -269 139 -186 169 -961 915 -961 925 0 6 21 18 47 26 26 8 49 18
52 21 3 3 -10 20 -29 39 l-34 33 -67 -17 c-79 -20 -44 -42 -277 179 -93 88
-171 161 -175 162 -4 1 -33 -12 -64 -30z m1332 -299 c25 -10 71 -36 102 -56
53 -34 57 -39 52 -67 -5 -27 1 -37 58 -91 75 -72 151 -114 207 -114 49 0 89
-31 265 -200 266 -258 381 -430 321 -480 -26 -21 -107 -24 -171 -5 -122 35
-248 122 -475 331 -277 255 -498 515 -529 625 -24 81 54 107 170 57z m-1058
-545 c444 -356 691 -580 768 -695 49 -74 55 -128 16 -153 -41 -27 -127 -21
-199 13 -65 31 -187 117 -187 133 0 5 16 9 35 9 30 0 35 3 35 24 0 46 -107
153 -208 207 -17 10 -68 70 -118 140 -49 68 -143 197 -210 285 -67 89 -125
167 -128 173 -20 32 30 -3 196 -136z"/>
<path d="M3036 9535 c-53 -49 -57 -56 -45 -72 13 -17 548 -631 592 -681 15
-16 18 -25 10 -33 -16 -16 -414 -119 -428 -111 -7 4 -158 183 -335 397 -177
215 -329 395 -336 401 -19 16 -95 1 -162 -32 -146 -71 -171 -246 -70 -498 45
-112 117 -218 217 -316 112 -111 203 -161 305 -167 l71 -5 -54 32 c-74 44
-169 142 -276 285 -163 217 -218 358 -185 475 5 20 16 45 24 55 15 20 16 19
44 -10 16 -16 395 -484 842 -1038 610 -758 816 -1007 828 -1003 118 36 188 59
194 65 4 4 -186 241 -423 526 -593 714 -546 655 -527 669 9 7 107 36 217 65
174 46 203 52 218 40 9 -8 235 -264 501 -569 267 -305 491 -561 498 -569 11
-13 26 -11 107 13 52 15 99 31 106 35 8 5 -306 363 -924 1052 -515 574 -939
1045 -943 1046 -4 1 -34 -22 -66 -52z"/>
<path d="M3422 9558 c-48 -48 70 -217 190 -273 57 -27 136 -33 156 -13 50 50
-66 214 -193 274 -54 26 -133 32 -153 12z"/>
</g>
</svg>
