<?xml version="1.0" standalone="no"?>
<!DOCTYPE svg PUBLIC "-//W3C//DTD SVG 20010904//EN"
 "http://www.w3.org/TR/2001/REC-SVG-20010904/DTD/svg10.dtd">
<svg version="1.0" xmlns="http://www.w3.org/2000/svg"
 width="1024.000000pt" height="808.000000pt" viewBox="0 0 1024.000000 808.000000"
 preserveAspectRatio="xMidYMid meet">

<g transform="translate(0.000000,808.000000) scale(0.100000,-0.100000)"
fill="#000000" stroke="none">
<path d="M5220 8069 c-34 -5 -60 -14 -70 -26 -8 -10 -40 -30 -71 -46 -54 -26
-58 -26 -92 -12 -48 20 -73 19 -95 -3 -11 -11 -41 -21 -73 -25 -113 -14 -337
-82 -499 -152 -47 -20 -142 -49 -213 -65 -138 -32 -147 -35 -147 -54 0 -9 -19
-16 -55 -21 -72 -9 -171 -59 -195 -98 -10 -16 -18 -47 -18 -67 1 -55 -4 -67
-114 -285 -82 -165 -101 -211 -108 -265 -9 -73 2 -109 37 -124 15 -7 24 -25
32 -65 15 -76 14 -89 -10 -96 -12 -4 -45 -28 -74 -53 -29 -26 -68 -56 -86 -67
-18 -11 -47 -39 -64 -63 -16 -24 -54 -68 -82 -98 -53 -55 -131 -199 -167 -309
-14 -45 -35 -170 -36 -218 0 -10 -4 -16 -8 -13 -20 12 -384 85 -477 96 -55 6
-118 16 -139 22 -33 8 -42 7 -52 -6 -10 -15 -17 -15 -75 -1 -38 10 -127 18
-221 21 -87 2 -185 11 -220 19 -111 26 -188 16 -188 -24 0 -15 -11 -19 -72
-24 -40 -3 -122 -20 -183 -37 -60 -18 -193 -49 -295 -71 -173 -37 -195 -44
-340 -113 -85 -41 -180 -82 -210 -91 -134 -42 -292 -179 -346 -302 -14 -31
-41 -74 -60 -95 -37 -42 -78 -117 -105 -195 -18 -53 -23 -145 -23 -438 0 -124
26 -232 68 -282 13 -15 32 -46 44 -68 29 -56 90 -125 112 -125 11 0 22 -12 29
-32 31 -88 108 -145 306 -224 152 -60 240 -105 369 -189 132 -86 246 -135 246
-106 0 5 22 -5 50 -24 57 -39 129 -62 232 -75 73 -9 101 -3 76 17 -7 6 -58 27
-113 47 -55 19 -135 54 -179 76 -80 41 -102 43 -93 9 4 -16 -6 -13 -64 18 -38
21 -104 64 -147 95 -157 116 -226 161 -298 194 -41 19 -109 50 -151 70 -101
46 -137 74 -179 140 -19 30 -36 54 -39 54 -2 0 -10 -7 -19 -15 -13 -14 -19 -9
-52 42 -58 90 -112 213 -130 294 -22 107 -34 300 -19 319 7 8 16 48 19 89 4
40 17 103 28 140 16 54 30 76 73 117 29 28 58 67 65 88 6 20 18 36 25 36 8 0
22 16 31 36 9 19 43 63 76 97 32 34 62 67 66 73 19 28 86 66 167 95 50 17 140
53 201 79 126 55 196 77 380 119 71 16 175 45 231 64 56 20 136 41 179 47 44
7 86 19 95 26 8 8 29 13 45 13 20 -1 23 -3 9 -6 -39 -9 -57 -60 -39 -108 17
-44 106 -37 164 12 25 21 31 32 27 53 l-6 26 52 -7 c29 -3 77 -4 107 -2 30 2
109 -2 175 -10 66 -8 125 -11 130 -7 6 5 35 0 65 -10 30 -10 100 -23 155 -30
55 -6 177 -29 272 -51 94 -21 174 -39 177 -39 3 0 6 -9 6 -20 0 -17 -7 -20
-44 -20 -36 0 -46 4 -51 20 -3 11 -11 20 -16 20 -12 0 -12 -36 1 -60 12 -22
72 -44 98 -36 15 5 22 -8 46 -81 59 -182 101 -240 259 -354 62 -44 113 -85
115 -90 2 -5 -17 -39 -41 -76 -41 -62 -55 -100 -89 -238 -9 -37 -7 -90 8 -206
l6 -46 -54 -30 c-69 -40 -152 -122 -183 -183 -14 -27 -30 -52 -36 -55 -6 -4
-24 -35 -40 -69 -28 -60 -37 -118 -21 -144 13 -20 -27 -129 -49 -135 -11 -3
-19 0 -19 8 0 33 -70 33 -231 -1 -110 -23 -140 -25 -261 -20 -143 5 -157 1
-142 -39 6 -14 41 -15 273 -13 252 3 268 4 311 25 64 32 90 23 90 -31 1 -22 7
-59 15 -81 10 -26 11 -43 4 -51 -6 -7 -13 -60 -16 -117 -5 -93 -8 -106 -25
-110 -11 -3 -22 -15 -25 -26 -5 -18 -13 -21 -62 -21 -32 0 -165 -13 -297 -30
-283 -35 -379 -37 -619 -9 -99 11 -190 18 -202 16 -16 -3 -27 3 -38 19 -21 32
-72 57 -102 50 -26 -7 -43 -39 -35 -69 10 -40 125 -66 139 -32 5 14 7 13 19
-3 32 -46 204 -55 599 -31 132 8 312 13 401 11 89 -2 172 1 186 7 36 14 65 4
72 -25 4 -13 19 -38 34 -56 15 -18 34 -46 42 -62 26 -51 122 -148 195 -195 86
-56 178 -99 310 -146 161 -57 242 -89 376 -148 69 -31 152 -62 185 -71 81 -21
324 -57 403 -60 40 -1 80 -10 100 -20 37 -20 30 -19 341 -14 l195 3 57 31 c45
25 58 28 62 17 8 -19 84 -53 122 -53 17 0 76 9 130 20 54 11 142 24 195 29
115 11 179 38 179 75 0 18 -7 25 -29 29 -27 6 -175 -6 -226 -17 -11 -3 -76
-10 -145 -16 -69 -5 -143 -13 -164 -16 l-39 -6 21 27 c13 16 22 42 22 60 0 66
-102 113 -143 67 -21 -23 -22 -95 -2 -112 16 -14 35 -6 35 16 0 18 14 18 30
-1 10 -12 10 -15 -1 -15 -8 0 -30 -10 -49 -22 -34 -22 -44 -23 -340 -25 -425
-3 -553 14 -811 108 -228 83 -305 108 -340 112 -19 2 -56 15 -82 29 -26 15
-56 30 -67 33 -20 6 -19 8 10 41 25 29 30 43 30 86 0 45 -4 54 -34 82 -18 18
-44 55 -57 84 l-24 52 -55 0 c-62 0 -100 -20 -131 -66 -24 -37 -24 -69 2 -110
22 -36 39 -37 39 -3 0 44 51 109 84 109 12 -1 29 -14 41 -33 13 -20 29 -32 43
-32 28 -1 51 -32 52 -71 0 -35 -29 -54 -80 -54 -16 0 -32 -4 -35 -10 -10 -15
-16 -13 -86 31 -61 40 -259 229 -293 281 -39 60 -59 243 -54 483 1 33 0 92 -3
130 -3 60 -1 74 18 100 12 17 31 65 42 108 12 43 30 95 40 116 31 60 106 146
158 180 l47 32 13 -58 c7 -32 17 -79 21 -105 7 -35 22 -62 56 -103 53 -61 50
-59 77 -45 28 15 24 28 -30 102 -43 60 -50 76 -60 147 -7 43 -21 110 -32 147
-18 63 -18 79 -8 188 11 112 13 122 47 170 45 65 103 126 118 126 7 0 26 -8
44 -17 24 -14 29 -23 24 -38 -3 -11 -8 -37 -11 -57 -4 -33 -2 -39 21 -50 23
-10 35 -8 76 9 l49 21 46 -24 c26 -12 66 -26 91 -30 24 -3 41 -10 38 -16 -3
-5 -19 -6 -35 -3 -25 6 -30 3 -40 -22 -9 -23 -8 -39 8 -83 l19 -55 62 -3 c56
-3 65 0 86 23 13 14 28 25 33 25 39 0 35 73 -6 95 -24 13 -19 14 69 15 118 0
151 -9 209 -58 65 -55 98 -70 196 -87 108 -19 105 -19 105 3 0 14 -27 27 -135
60 -118 37 -141 48 -187 89 -71 63 -115 80 -256 97 -186 23 -332 62 -332 88 0
5 -6 8 -13 6 -8 -2 -89 51 -181 116 -197 141 -287 230 -340 337 -20 41 -44 79
-52 86 -10 7 -17 30 -19 57 -2 24 -5 48 -8 54 -4 5 -11 30 -17 56 -9 41 -7 63
15 154 34 139 77 262 92 262 16 0 51 49 103 144 61 112 95 146 195 194 48 23
89 42 93 42 4 0 16 -16 26 -35 11 -19 25 -35 32 -35 8 0 16 -11 20 -25 7 -27
57 -75 79 -75 7 0 20 -11 28 -24 9 -13 44 -38 79 -55 50 -25 64 -37 68 -59 4
-20 14 -30 40 -39 48 -16 152 -16 174 0 16 12 24 8 70 -38 30 -31 78 -64 119
-83 130 -62 356 -107 593 -119 l126 -6 -5 -26 c-8 -39 30 -120 59 -127 56 -14
72 30 33 92 -11 19 -18 38 -14 44 4 6 58 10 134 10 125 0 128 -1 141 -24 19
-37 6 -54 -57 -71 -80 -22 -223 -78 -223 -88 0 -4 10 -5 23 -2 12 3 63 7 112
9 109 4 162 19 209 58 27 22 38 40 42 70 6 35 9 39 28 33 12 -3 73 -9 137 -12
113 -5 120 -5 300 41 139 35 216 48 317 56 135 10 206 24 300 60 29 11 68 20
87 20 20 0 52 7 71 15 43 18 48 15 74 -35 26 -50 25 -52 -7 -39 -36 13 -133 2
-133 -15 0 -7 -7 -27 -16 -45 -11 -21 -15 -51 -12 -89 l3 -57 -31 3 c-41 4
-68 -21 -54 -49 14 -25 65 -25 108 1 32 20 42 40 20 40 -7 0 -4 7 7 16 11 8
25 12 32 10 7 -3 13 -1 13 4 0 5 16 16 35 24 36 15 46 40 21 49 -22 9 -58 -3
-95 -31 l-34 -25 7 24 c3 13 9 42 12 65 l6 41 47 -9 c71 -13 81 -18 81 -39 0
-15 6 -19 22 -17 18 2 24 -3 29 -27 6 -33 1 -380 -7 -433 -4 -24 -29 -58 -92
-126 -124 -131 -234 -256 -259 -291 -11 -17 -38 -36 -59 -44 -22 -8 -116 -49
-211 -93 -95 -43 -177 -78 -183 -78 -6 0 -52 -14 -102 -30 -92 -31 -257 -67
-338 -75 -25 -3 -70 -8 -100 -12 -79 -11 -202 -6 -270 12 -48 13 -98 14 -275
9 -224 -7 -280 -18 -280 -54 0 -51 197 -65 415 -29 138 22 143 22 229 6 48 -9
97 -17 109 -17 26 0 28 -17 6 -48 -15 -22 -11 -62 7 -62 5 0 9 -9 9 -20 0 -26
44 -54 84 -54 68 1 103 14 145 57 59 59 74 89 59 122 -6 14 -16 25 -22 25 -30
1 27 19 89 29 94 14 178 44 228 81 22 16 50 30 60 30 11 0 81 24 156 54 75 30
166 65 202 79 104 39 149 65 149 86 0 10 7 24 15 31 12 10 15 9 15 -8 0 -33
97 -64 144 -46 20 8 37 37 47 81 8 40 -2 43 -26 7 -18 -27 -21 -28 -118 -7
l-38 8 61 90 c34 50 64 92 66 95 9 9 24 -25 20 -44 -7 -26 11 -66 29 -66 8 0
20 11 27 24 l11 25 50 -19 c28 -11 63 -32 79 -47 40 -38 75 -116 86 -190 8
-57 7 -63 -9 -63 -23 0 -42 -35 -35 -64 4 -17 -2 -30 -24 -51 -16 -15 -27 -31
-25 -35 3 -4 -16 -15 -41 -25 -25 -9 -78 -46 -117 -81 -81 -73 -171 -120 -299
-157 -47 -14 -94 -30 -104 -35 -11 -5 -52 -17 -92 -26 -41 -9 -104 -32 -140
-50 -68 -34 -114 -47 -237 -66 -38 -6 -90 -17 -115 -25 -25 -8 -96 -23 -159
-34 -62 -11 -115 -22 -117 -24 -2 -2 26 -9 64 -16 74 -13 108 -9 243 34 42 13
125 36 185 50 60 15 133 40 163 57 73 41 116 55 222 73 49 9 97 19 106 22 10
4 -12 -26 -49 -65 -66 -71 -112 -147 -138 -227 -18 -57 -19 -58 -42 -30 -23
30 -58 32 -108 7 -47 -23 -46 -46 3 -50 43 -4 49 -23 15 -46 -20 -14 -23 -14
-31 -1 -4 8 -12 15 -17 15 -16 0 -11 -49 7 -76 21 -32 54 -26 102 19 l34 32
-7 -55 c-4 -30 -11 -82 -17 -116 l-11 -61 -69 -13 c-78 -13 -262 -68 -324 -95
-22 -10 -44 -17 -48 -16 -4 1 -38 -6 -75 -15 -37 -8 -86 -15 -110 -15 -36 0
-44 -3 -52 -24 l-10 -25 -159 0 c-168 0 -246 11 -296 40 -27 15 -44 16 -165 9
-162 -11 -236 -2 -375 46 -70 24 -103 31 -112 24 -8 -8 -47 -3 -127 15 -155
35 -215 59 -305 122 -42 29 -110 74 -151 100 -85 53 -177 114 -264 174 -70 48
-97 56 -137 40 -22 -9 -29 -18 -27 -34 2 -16 9 -21 32 -19 42 3 90 -24 80 -45
-24 -58 -27 -90 -11 -116 10 -14 24 -26 32 -26 8 0 15 -5 15 -10 0 -6 11 -22
25 -35 38 -39 124 -29 164 18 10 13 21 10 79 -22 37 -20 109 -67 160 -103 127
-92 179 -109 397 -132 22 -2 86 -20 143 -41 123 -44 220 -54 323 -35 75 14
160 5 242 -26 20 -8 49 -14 62 -14 26 0 34 -15 13 -22 -7 -3 -9 -12 -5 -22 5
-13 16 -16 39 -14 38 4 41 18 7 35 -23 12 -22 13 16 13 22 0 58 5 80 10 67 16
205 32 305 35 63 1 108 8 135 20 22 10 63 18 90 19 42 1 54 -3 72 -24 19 -23
28 -25 97 -24 60 0 82 4 104 21 29 22 42 74 22 98 -8 10 -4 15 17 23 15 5 35
13 43 16 26 10 10 -108 -22 -169 -15 -27 -30 -75 -33 -107 l-7 -56 -62 -11
c-106 -19 -138 -30 -134 -49 6 -29 115 -28 189 3 13 5 18 -2 23 -28 4 -19 24
-70 45 -113 21 -44 42 -90 46 -104 4 -14 25 -58 48 -99 38 -70 39 -76 22 -85
-10 -6 -30 -21 -45 -33 -36 -30 -73 -43 -118 -43 -46 0 -151 -30 -217 -61 -35
-17 -50 -30 -50 -44 0 -77 254 -48 330 38 17 19 40 39 51 45 30 16 103 31 108
23 3 -4 11 -48 19 -98 8 -49 22 -104 31 -122 9 -17 14 -36 11 -40 -10 -16 13
-59 35 -66 34 -11 77 -63 120 -146 45 -88 82 -135 113 -145 12 -3 43 -26 70
-51 47 -44 116 -82 149 -83 21 0 74 -33 146 -90 82 -66 104 -80 126 -80 10 0
50 -30 89 -66 101 -95 146 -114 279 -114 103 0 112 -2 250 -51 79 -28 159 -54
178 -59 19 -4 58 -16 85 -27 155 -63 373 -70 535 -18 71 23 93 26 140 19 95
-13 241 -9 330 10 96 20 227 68 262 96 14 10 48 28 76 38 71 27 171 101 234
173 29 33 72 71 95 85 40 23 61 49 189 229 172 241 232 397 249 645 8 104 -3
188 -37 285 -19 55 -20 74 -14 227 7 184 4 200 -54 263 -15 17 -51 61 -79 98
-44 59 -49 70 -39 87 10 16 8 29 -11 72 -13 29 -23 61 -23 72 1 10 -5 28 -13
40 -7 11 -19 41 -25 66 -19 76 -21 79 -45 92 -164 90 -199 114 -248 171 -28
33 -71 82 -94 107 -24 26 -43 57 -43 70 0 34 -111 137 -221 205 -139 87 -372
200 -469 229 -47 14 -125 42 -175 63 -88 37 -92 38 -235 40 -80 2 -242 6 -360
9 -255 8 -303 2 -508 -63 -182 -57 -264 -79 -322 -85 l-45 -5 -32 66 c-106
221 -131 266 -155 286 -15 13 -59 35 -98 50 -38 15 -70 29 -70 32 0 3 18 25
39 50 58 66 65 108 58 375 -6 230 -19 326 -55 399 l-19 37 104 77 c112 84 197
171 234 240 13 24 31 46 40 48 31 8 59 89 69 198 14 161 12 385 -5 449 -19 74
-85 201 -143 277 -63 84 -116 121 -195 137 -94 20 -229 94 -332 182 -49 42
-103 83 -121 90 -36 15 -97 17 -129 5 -14 -6 -32 1 -65 25 -65 46 -133 67
-225 70 -45 1 -100 10 -125 19 -47 18 -131 15 -154 -4 -9 -7 -24 -7 -47 1 -39
12 -444 18 -529 7z m275 -49 c61 -5 163 -17 227 -27 112 -16 119 -16 137 1 31
28 143 23 181 -9 8 -7 34 -15 57 -19 23 -3 74 -18 113 -33 54 -19 74 -32 81
-51 9 -23 12 -24 64 -17 76 9 133 -12 261 -96 131 -87 181 -112 274 -139 97
-28 125 -43 183 -99 68 -65 99 -119 151 -257 42 -111 46 -129 46 -210 0 -134
-62 -364 -123 -455 -71 -107 -232 -244 -347 -297 -41 -18 -106 -48 -145 -67
-206 -96 -363 -136 -461 -116 -120 24 -158 16 -369 -70 -128 -53 -132 -54
-230 -53 -89 0 -105 3 -148 27 -38 21 -53 24 -73 17 -38 -15 -260 -13 -284 2
-16 10 -24 10 -40 0 -40 -24 -241 -8 -335 27 -27 10 -108 33 -180 50 -167 39
-258 84 -344 168 -67 65 -77 71 -83 52 -3 -9 -9 -9 -25 0 -12 6 -61 20 -108
32 -103 24 -134 35 -157 56 -16 14 -16 17 3 42 11 14 25 54 31 88 16 89 -8
175 -67 239 -52 55 -71 54 -67 -5 4 -49 -31 -127 -59 -134 -13 -3 -19 -14 -19
-32 0 -41 -19 -21 -55 59 -44 97 -49 121 -30 149 8 13 20 62 25 108 7 53 30
143 65 244 29 88 59 188 66 223 7 34 18 62 25 62 6 0 39 18 73 41 38 25 89 48
132 59 76 20 109 42 109 72 0 32 123 79 404 157 77 22 181 47 230 56 103 18
181 49 201 79 14 19 18 19 62 7 85 -25 106 -24 165 3 31 14 62 26 67 26 6 0
11 4 11 9 0 17 76 40 135 40 33 1 110 -3 170 -9z m-1708 -1372 c7 -70 -19
-158 -47 -158 -21 0 -50 36 -50 62 0 9 13 38 29 64 17 25 33 60 36 76 10 43
25 22 32 -44z m224 -362 l44 -14 -47 -1 c-56 -1 -78 6 -78 26 0 9 6 12 19 8
10 -3 38 -12 62 -19z m-2187 -392 c22 -8 10 -24 -19 -24 -25 0 -39 12 -28 24
8 8 27 8 47 0z m1864 -868 c9 -20 7 -25 -14 -35 -47 -21 -58 -6 -28 37 19 28
28 28 42 -2z m4903 -16 c24 -6 71 -27 103 -46 33 -19 138 -69 235 -110 212
-91 269 -122 420 -230 2 -2 -4 -10 -13 -19 -29 -30 -16 -56 34 -68 40 -10 106
-72 180 -171 90 -120 175 -183 283 -210 31 -7 32 -34 1 -27 -84 19 -99 -18
-27 -64 38 -25 49 -38 59 -75 43 -161 111 -284 185 -335 57 -40 65 -69 45
-168 -28 -143 -18 -254 28 -307 21 -23 30 -199 16 -300 -32 -242 -123 -438
-296 -636 -34 -40 -70 -86 -80 -102 -9 -17 -27 -33 -39 -36 -12 -3 -66 -47
-121 -97 -54 -50 -112 -102 -129 -114 -46 -36 -155 -95 -173 -95 -10 0 -100
-21 -202 -47 l-185 -46 -86 22 -86 23 -84 -27 c-59 -20 -113 -29 -184 -32
-114 -6 -178 4 -322 48 -104 33 -128 33 -141 1 -6 -18 -14 -16 -109 25 -113
49 -209 73 -293 73 -84 0 -124 16 -192 76 -65 57 -133 98 -147 90 -4 -3 -23
15 -41 40 -42 59 -100 101 -153 109 -27 5 -54 19 -77 41 -51 49 -175 125 -192
119 -9 -4 -28 11 -51 41 -28 36 -35 53 -31 73 4 19 3 22 -5 12 -8 -12 -13 -9
-28 18 -10 19 -31 49 -47 67 -15 19 -26 34 -23 34 3 0 12 3 21 6 11 4 19 -2
26 -20 15 -40 27 -31 34 26 9 69 -5 83 -86 84 -60 1 -61 1 -78 37 -10 20 -32
85 -50 144 -19 67 -57 157 -99 238 -37 72 -66 137 -64 146 2 9 -5 53 -17 97
-11 45 -23 114 -26 155 -6 62 -3 80 15 123 19 42 21 59 16 126 -6 66 -3 94 23
200 17 68 37 152 45 188 18 78 105 230 187 328 30 36 84 85 120 108 73 48 124
87 222 173 51 44 78 60 107 64 22 3 54 15 70 26 17 12 37 21 45 19 8 -2 21 5
28 14 8 11 49 24 108 37 52 10 103 22 112 26 12 5 17 1 20 -17 6 -45 118 -73
118 -29 0 9 -13 25 -30 34 -16 10 -30 22 -30 27 0 8 113 50 137 50 20 0 16
-23 -10 -61 -14 -20 -30 -33 -40 -31 -11 2 -15 -2 -11 -12 18 -47 125 -8 155
58 10 23 19 51 19 62 0 18 9 23 57 33 63 12 219 14 400 5 l120 -7 -2 -29 c-1
-15 -5 -31 -9 -35 -3 -3 -6 -24 -6 -46 0 -31 7 -46 34 -73 38 -38 77 -44 126
-19 32 16 51 62 31 74 -8 6 -8 15 0 40 11 30 9 58 -5 92 -6 14 -1 15 42 9 26
-5 68 -13 93 -20z m-183 -72 c-11 -54 -19 -74 -32 -76 -28 -6 -46 18 -46 59 0
34 3 39 23 39 31 0 49 14 47 36 -4 31 -1 39 11 27 8 -8 8 -31 -3 -85z m-4379
-94 c23 -7 -28 -39 -86 -53 -29 -7 -56 -10 -60 -8 -5 3 -7 25 -5 49 l4 45 66
-14 c37 -8 73 -17 81 -19z m1618 -150 c43 -25 49 -44 14 -44 -10 0 -40 -11
-67 -25 -50 -26 -75 -26 -106 -1 -17 12 -17 15 -2 45 28 56 91 66 161 25z
m-1937 -656 c27 -18 48 -37 47 -43 -6 -17 -64 -46 -80 -39 -21 8 -40 59 -33
89 4 14 9 25 11 25 3 0 28 -15 55 -32z m2400 -348 c0 -14 -76 -34 -97 -25 -14
6 -10 10 22 20 50 16 75 18 75 5z"/>
<path d="M5320 7880 c-18 -11 -17 -12 50 -33 54 -17 110 -56 110 -76 0 -14
-34 -31 -60 -31 -12 0 -33 9 -47 20 -14 11 -36 20 -49 20 -27 0 -32 15 -9 24
20 7 19 35 -2 43 -21 8 -55 -33 -51 -61 1 -12 -1 -27 -6 -34 -18 -29 12 -38
142 -39 104 -2 132 1 142 12 9 11 9 15 1 15 -6 0 -11 14 -11 30 0 19 -5 30
-14 30 -8 0 -24 15 -35 34 -30 48 -118 73 -161 46z"/>
<path d="M4875 7846 c-13 -14 -32 -26 -42 -28 -31 -6 -28 -52 4 -78 67 -52
219 23 182 91 -23 44 -107 52 -144 15z m83 -22 c30 -9 28 -26 -8 -47 -28 -17
-31 -17 -55 -1 -53 35 -11 67 63 48z"/>
<path d="M6018 7814 c-50 -21 -59 -51 -24 -81 58 -50 158 -51 207 -2 25 25 24
45 -6 74 -20 21 -33 25 -82 24 -32 0 -75 -7 -95 -15z m133 -41 c6 -6 1 -13
-13 -20 -26 -11 -128 12 -128 30 0 12 128 3 141 -10z"/>
<path d="M4460 7654 c-30 -8 -63 -23 -74 -33 -19 -20 -15 -41 10 -41 8 0 14
-8 14 -18 0 -43 81 -82 172 -82 73 0 234 46 243 70 10 24 -65 86 -126 104 -65
20 -166 20 -239 0z m260 -66 c54 -23 48 -29 -66 -58 -93 -24 -135 -25 -174 -5
-29 15 -32 45 -5 45 8 0 16 9 20 19 3 11 18 22 33 24 48 8 146 -4 192 -25z"/>
<path d="M5599 7651 c-14 -5 -36 -14 -50 -22 -13 -7 -33 -12 -44 -11 -11 1
-26 -2 -34 -7 -38 -25 39 -124 106 -137 75 -14 293 29 293 58 0 5 -5 14 -10
21 -6 7 -19 24 -30 39 -42 55 -150 83 -231 59z m139 -73 l47 -22 -35 -9 c-19
-5 -61 -18 -94 -28 -68 -22 -83 -17 -112 36 -17 31 -17 37 -4 46 24 17 146 3
198 -23z"/>
<path d="M3875 7476 c-57 -18 -117 -50 -140 -75 -16 -18 -17 -26 -7 -41 6 -11
9 -32 6 -49 -5 -23 -2 -32 14 -40 53 -28 193 4 207 48 3 10 21 25 40 34 40 19
60 54 52 90 -12 44 -89 59 -172 33z m119 -40 c15 -5 16 -9 6 -21 -24 -29 -106
-67 -157 -72 -48 -5 -53 -4 -53 14 0 13 16 28 49 46 42 24 117 47 131 42 3 -1
13 -5 24 -9z"/>
<path d="M6255 7430 c-82 -17 -155 -63 -155 -96 0 -7 -7 -20 -16 -29 -27 -26
-10 -43 52 -51 103 -12 254 11 254 39 0 7 18 20 41 29 35 15 40 21 37 44 -6
50 -119 84 -213 64z m149 -60 c35 -13 34 -40 -1 -41 -16 0 -77 -1 -136 -3 -93
-2 -106 -1 -94 11 36 37 172 56 231 33z"/>
<path d="M6840 7409 c-17 -23 -22 -46 -24 -102 -1 -85 7 -91 82 -57 73 33 76
35 92 63 13 24 13 30 0 54 -19 34 -75 73 -106 73 -14 0 -31 -12 -44 -31z m68
-50 c20 -24 22 -32 12 -44 -7 -8 -23 -15 -36 -15 -25 0 -30 20 -18 68 8 28 14
27 42 -9z"/>
<path d="M4874 7396 c-3 -8 -4 -23 -2 -33 5 -25 61 -25 66 0 7 37 -51 67 -64
33z"/>
<path d="M5532 7238 c-83 -86 -112 -132 -94 -150 10 -10 16 -10 32 0 16 10 45
10 137 1 156 -15 210 -4 248 51 22 32 26 46 21 73 -4 19 -15 42 -25 51 -28 25
-117 46 -189 44 l-63 -2 -67 -68z m220 12 c33 0 41 -5 64 -41 23 -37 24 -43
11 -57 -21 -20 -131 -21 -219 -2 l-66 14 36 48 37 49 50 -6 c28 -2 67 -5 87
-5z"/>
<path d="M4161 7291 c-17 -11 -6 -31 19 -31 29 0 50 11 50 26 0 16 -47 19 -69
5z"/>
<path d="M3894 7175 c-13 -71 0 -152 32 -197 36 -52 59 -67 75 -51 9 9 8 18
-4 36 -27 42 -57 144 -57 197 0 43 -3 50 -20 50 -14 0 -21 -9 -26 -35z"/>
<path d="M5005 7148 c-26 -27 -50 -65 -63 -100 -24 -65 -20 -92 12 -85 12 3
48 10 81 17 137 27 168 44 181 97 11 43 2 51 -108 105 -35 16 -61 7 -103 -34z
m121 -43 c75 -31 12 -95 -94 -95 l-53 0 17 30 c26 43 63 80 80 80 8 0 31 -7
50 -15z"/>
<path d="M4393 7143 c-7 -2 -13 -13 -13 -23 0 -23 81 -46 110 -30 51 27 -40
77 -97 53z"/>
<path d="M6940 7083 c-51 -45 -51 -77 -1 -110 50 -33 105 -31 142 6 16 16 29
36 29 45 0 47 -53 96 -104 96 -16 0 -42 -14 -66 -37z m80 -38 c29 -35 -23 -60
-71 -35 -22 12 -25 36 -6 43 25 11 65 7 77 -8z"/>
<path d="M4134 6921 c-98 -36 -163 -102 -160 -161 1 -31 5 -35 46 -48 25 -7
90 -14 145 -14 85 0 101 2 115 18 29 36 61 43 100 24 79 -40 170 -48 170 -14
0 17 -26 31 -86 44 -76 16 -76 16 -62 40 19 30 -6 68 -65 99 -64 32 -137 37
-203 12z m176 -71 l55 -28 -38 -17 c-21 -8 -40 -21 -43 -28 -3 -8 -32 -12 -90
-13 -57 0 -88 -4 -93 -13 -6 -9 -18 -10 -55 0 l-47 12 23 24 c48 51 136 92
198 92 19 0 60 -13 90 -29z"/>
<path d="M6814 6781 c-18 -11 -39 -30 -48 -42 -18 -26 -21 -89 -7 -117 5 -9
12 -25 15 -35 5 -16 9 -16 54 7 55 28 85 56 59 56 -9 0 -27 -4 -41 -9 -20 -8
-27 -6 -40 14 -24 37 -19 55 19 71 61 25 77 23 87 -13 10 -37 24 -42 44 -15
16 21 18 56 4 83 -15 26 -102 27 -146 0z"/>
<path d="M4920 6761 c-25 -13 -35 -25 -35 -42 0 -21 4 -24 30 -21 17 2 55 5
85 7 30 1 63 3 73 4 11 1 17 9 17 25 0 45 -106 62 -170 27z"/>
<path d="M5817 6706 c-84 -25 -126 -50 -142 -84 -5 -11 -20 -23 -32 -27 -30
-7 -29 -35 2 -69 33 -36 76 -53 155 -61 49 -5 76 -2 110 10 26 10 83 18 138
20 77 3 103 8 147 30 136 66 124 165 -20 165 -35 0 -90 9 -125 20 -80 26 -136
25 -233 -4z m223 -76 c41 -11 98 -20 125 -21 l50 -1 -52 -24 c-41 -20 -57 -23
-72 -14 -15 7 -36 6 -78 -4 -32 -8 -96 -20 -143 -27 -80 -11 -88 -10 -127 10
-55 28 -59 37 -24 56 90 46 206 55 321 25z"/>
<path d="M4614 6696 c-12 -32 52 -117 106 -141 47 -21 62 -14 33 18 -11 12
-37 48 -57 80 -36 57 -70 75 -82 43z"/>
<path d="M4803 6569 c-38 -38 56 -94 156 -94 102 0 88 34 -30 74 -75 26 -114
32 -126 20z"/>
<path d="M6371 6540 c-30 -17 -62 -36 -70 -44 -9 -7 -26 -17 -37 -20 -40 -12
-37 -71 5 -103 38 -29 101 -4 73 30 -5 6 -12 25 -14 41 -3 28 0 31 44 45 37
11 53 12 73 3 32 -15 24 -33 -26 -62 -56 -31 -38 -50 25 -26 77 29 110 102 66
146 -28 28 -76 25 -139 -10z"/>
<path d="M5047 6493 c-14 -13 -6 -21 31 -28 20 -3 118 -33 217 -65 194 -64
226 -71 232 -54 5 15 -190 87 -335 125 -120 31 -135 33 -145 22z"/>
<path d="M5563 6354 c-10 -27 22 -45 93 -54 99 -12 114 13 30 51 -52 23 -114
25 -123 3z"/>
<path d="M6043 6210 c-25 -10 -27 -18 -15 -38 11 -16 102 -4 109 15 3 8 3 16
0 19 -10 10 -73 13 -94 4z"/>
<path d="M7907 4893 c-4 -4 -5 -27 -1 -52 3 -25 7 -59 9 -76 1 -16 3 -34 4
-39 0 -4 31 -6 67 -4 58 4 70 8 90 32 42 48 27 107 -31 132 -35 14 -126 19
-138 7z m111 -59 c30 -21 28 -34 -8 -34 -25 0 -30 4 -30 25 0 29 7 31 38 9z"/>
<path d="M7212 4599 c-38 -15 -21 -30 38 -34 30 -2 68 -8 85 -15 l30 -11 -55
-35 c-30 -19 -59 -34 -65 -34 -27 0 -55 33 -61 71 -8 50 -37 51 -42 2 -9 -94
107 -132 204 -67 19 14 39 22 43 19 5 -2 16 4 25 14 22 24 9 54 -37 81 -35 22
-123 26 -165 9z"/>
<path d="M8460 4584 c-71 -23 -100 -38 -100 -50 0 -11 15 -14 64 -14 121 0
161 -21 115 -60 -23 -19 -56 -32 -111 -44 -16 -4 -28 -13 -28 -20 0 -9 -16
-17 -40 -21 -30 -5 -40 -11 -40 -26 0 -18 5 -19 73 -13 199 18 318 135 228
225 -26 26 -36 29 -88 28 -32 0 -65 -3 -73 -5z"/>
<path d="M8920 4498 c-23 -25 -26 -63 -5 -72 8 -3 19 2 23 11 11 19 39 11 49
-13 3 -8 -2 -23 -11 -32 -15 -15 -17 -15 -31 3 -14 19 -15 19 -6 -5 12 -37 48
-52 81 -35 80 41 48 165 -41 165 -26 0 -45 -7 -59 -22z"/>
<path d="M8326 4494 c-41 -41 16 -130 59 -94 23 19 19 87 -4 100 -27 14 -37
13 -55 -6z"/>
<path d="M6930 4449 c-14 -6 -44 -20 -67 -31 -45 -23 -49 -33 -43 -123 2 -43
48 -118 67 -111 8 3 18 6 21 6 4 0 1 4 -7 9 -11 7 -14 29 -12 86 1 45 -2 82
-9 90 -15 18 -2 24 59 32 48 5 51 4 61 -21 14 -37 13 -119 -2 -151 -9 -20 -9
-28 0 -37 10 -10 17 -7 33 9 27 27 35 92 19 166 -16 79 -53 102 -120 76z"/>
<path d="M9306 4344 c-8 -31 14 -69 44 -79 27 -9 78 12 85 35 13 42 -26 71
-66 49 -18 -9 -25 -9 -34 5 -17 22 -22 20 -29 -10z"/>
<path d="M6499 4265 c-14 -7 -34 -33 -45 -57 -35 -78 -20 -277 21 -282 5 -1 9
48 10 114 1 122 13 164 58 200 20 17 17 40 -6 40 -7 -1 -24 -7 -38 -15z"/>
<path d="M7743 4219 c-22 -4 -60 -17 -84 -28 -23 -12 -51 -21 -62 -21 -18 0
-19 -6 -15 -71 4 -83 18 -99 85 -99 49 0 154 32 188 58 28 21 40 90 23 127
-10 23 -23 29 -78 40 -8 1 -34 -1 -57 -6z m65 -75 c13 -4 22 -13 20 -22 -4
-18 -134 -73 -168 -69 -22 2 -25 7 -28 44 l-3 42 43 4 c77 7 113 7 136 1z"/>
<path d="M8958 4123 c-10 -2 -18 -10 -18 -18 0 -7 -7 -18 -15 -25 -20 -16 -19
-74 1 -94 8 -9 24 -16 35 -16 26 0 91 28 101 43 14 22 8 74 -10 90 -20 18 -67
28 -94 20z m34 -55 c20 -20 20 -22 3 -35 -37 -26 -69 -5 -54 35 10 28 23 28
51 0z"/>
<path d="M7233 4008 c-30 -14 -35 -55 -12 -99 22 -44 29 -47 83 -39 32 4 42
10 50 31 5 14 6 38 2 52 -11 45 -80 76 -123 55z m31 -64 c17 -7 22 -44 6 -44
-9 0 -30 31 -30 44 0 8 5 7 24 0z"/>
<path d="M8638 3989 c-43 -16 -36 -39 12 -39 42 0 100 -23 100 -40 0 -5 -8
-13 -17 -19 -32 -18 -3 -25 32 -8 28 14 35 22 35 47 0 21 -8 34 -25 46 -31 20
-101 27 -137 13z"/>
<path d="M6667 3978 c-38 -14 -48 -55 -17 -80 12 -10 25 -18 29 -18 14 0 72
41 78 56 12 33 -43 59 -90 42z"/>
<path d="M8175 3940 c-34 -14 -72 -63 -89 -114 -9 -27 -16 -53 -16 -57 0 -4
38 -12 84 -19 91 -13 156 -2 156 25 0 22 -33 26 -86 10 -51 -15 -138 -20 -132
-7 2 4 9 23 17 43 12 32 20 38 65 49 60 14 106 2 106 -29 0 -10 7 -24 15 -31
23 -19 45 5 45 50 0 52 -44 90 -103 89 -23 0 -51 -4 -62 -9z"/>
<path d="M8575 3939 c-10 -16 14 -66 41 -84 25 -16 84 -21 84 -6 0 5 -16 18
-35 30 -19 11 -40 32 -47 46 -12 26 -32 33 -43 14z"/>
<path d="M6491 3788 c0 -28 2 -30 9 -13 12 28 12 45 0 45 -5 0 -10 -15 -9 -32z"/>
<path d="M6883 3760 c-24 -10 -43 -23 -43 -27 0 -4 32 -8 71 -8 62 -1 74 -4
90 -24 25 -31 13 -51 -52 -85 -52 -27 -53 -27 -72 -8 -10 11 -22 34 -26 53
-10 49 -31 49 -31 1 0 -59 25 -84 90 -89 70 -5 105 11 135 62 32 53 32 89 0
120 -30 31 -100 33 -162 5z"/>
<path d="M9208 3765 c-35 -11 -48 -21 -48 -34 0 -28 20 -39 75 -43 l50 -3 -44
-23 c-36 -20 -48 -22 -68 -13 -33 15 -35 14 -31 -16 2 -14 15 -35 30 -46 24
-18 32 -19 68 -8 23 7 49 24 62 41 12 17 27 30 33 30 20 0 45 35 45 62 0 56
-82 81 -172 53z"/>
<path d="M7394 3722 c-23 -15 -35 -51 -24 -72 13 -24 20 -25 59 -2 37 20 45
37 31 63 -11 19 -45 25 -66 11z"/>
<path d="M6493 3683 c-42 -16 25 -296 78 -328 28 -18 28 18 -1 165 -31 160
-40 179 -77 163z"/>
<path d="M9474 3666 c-12 -32 3 -46 51 -46 32 0 47 5 52 16 8 22 -9 35 -56 41
-32 4 -42 2 -47 -11z"/>
<path d="M9697 3674 c-10 -11 -9 -42 3 -49 19 -12 81 15 78 33 -3 18 -67 30
-81 16z"/>
<path d="M9950 3580 c0 -5 7 -10 16 -10 8 0 12 5 9 10 -3 6 -10 10 -16 10 -5
0 -9 -4 -9 -10z"/>
<path d="M9897 3520 c-35 -28 -42 -56 -23 -85 14 -21 25 -25 62 -25 64 0 104
23 104 60 0 60 -90 92 -143 50z m77 -38 c6 -10 -40 -62 -54 -62 -13 0 -13 26
0 51 11 19 44 26 54 11z"/>
<path d="M8880 3389 c-19 -6 -50 -22 -69 -36 -33 -25 -67 -86 -57 -102 10 -16
120 -31 154 -22 67 20 120 103 90 144 -16 22 -72 29 -118 16z m64 -45 c27 -10
19 -43 -11 -49 -16 -3 -54 -11 -85 -18 -33 -8 -58 -10 -58 -4 0 5 15 24 34 43
34 34 78 44 120 28z"/>
<path d="M9610 3358 c-19 -12 -44 -27 -55 -33 -32 -17 -32 -68 1 -99 38 -35
74 -40 138 -22 63 18 116 59 116 88 0 77 -120 116 -200 66z m100 -39 c74 -17
78 -28 22 -60 -75 -43 -97 -45 -126 -16 -39 40 -15 81 49 86 6 0 30 -4 55 -10z"/>
<path d="M6626 3349 c-14 -11 -31 -30 -37 -42 -10 -17 -8 -23 8 -37 14 -11 18
-21 12 -35 -14 -36 -9 -83 11 -107 10 -12 31 -38 46 -55 34 -43 48 -42 40 1
-6 32 -5 34 30 39 40 7 104 51 104 71 0 8 9 16 20 19 45 12 9 105 -55 142 -55
33 -140 35 -179 4z m131 -58 c25 -12 48 -32 58 -50 15 -30 15 -31 -8 -31 -13
0 -47 -7 -76 -16 -29 -8 -55 -13 -58 -10 -3 2 3 19 14 36 18 31 18 32 -4 50
-28 22 -28 27 -5 33 30 8 36 7 79 -12z"/>
<path d="M7752 3322 c-20 -10 -32 -22 -30 -32 2 -9 -8 -40 -21 -69 -22 -46
-23 -53 -9 -67 17 -18 12 -64 -7 -64 -24 0 -28 -41 -8 -69 24 -32 62 -51 114
-58 45 -6 181 25 176 40 -2 6 -38 11 -88 11 -93 1 -124 13 -148 60 -14 25 -12
32 25 104 22 42 46 76 52 74 7 -1 60 -5 118 -9 l106 -6 -8 -51 c-4 -28 -9 -67
-10 -86 -1 -19 -5 -43 -9 -53 -18 -44 26 -32 55 15 24 40 25 58 4 58 -17 0
-17 8 2 136 5 34 3 45 -15 63 -20 20 -31 22 -144 20 -86 -1 -132 -6 -155 -17z
m-32 -262 c0 -5 -2 -10 -4 -10 -3 0 -8 5 -11 10 -3 6 -1 10 4 10 6 0 11 -4 11
-10z"/>
<path d="M8483 3300 c-42 -9 -93 -36 -93 -50 0 -4 -20 -28 -45 -52 -37 -38
-45 -52 -45 -83 0 -36 1 -37 30 -31 24 4 35 1 52 -19 28 -32 52 -31 113 4 76
44 89 62 80 113 -4 24 -8 58 -10 77 -3 29 -19 53 -35 50 -3 -1 -24 -5 -47 -9z
m30 -107 c7 -36 2 -44 -45 -76 -37 -26 -42 -27 -57 -13 -10 9 -25 16 -34 16
-20 0 -21 15 -6 58 9 27 14 30 39 26 15 -4 36 -1 47 5 31 18 50 13 56 -16z"/>
<path d="M9147 3272 c-23 -25 -23 -115 0 -153 12 -21 25 -29 45 -29 15 0 30
-4 33 -10 9 -15 23 -12 46 11 18 18 19 28 13 77 -7 62 -18 90 -43 109 -24 19
-76 16 -94 -5z m78 -75 c19 -35 19 -37 2 -54 -20 -21 -30 -12 -47 39 -21 67
11 78 45 15z"/>
<path d="M9868 3008 c-16 -5 -28 -16 -28 -23 0 -8 -23 -45 -52 -82 -63 -84
-87 -136 -88 -188 0 -43 22 -85 45 -85 7 0 28 -15 47 -32 18 -18 42 -38 52
-43 16 -9 2 -24 -110 -114 -79 -63 -156 -116 -200 -136 -93 -43 -204 -124
-204 -149 0 -16 6 -18 40 -13 22 3 72 21 112 40 40 19 100 47 133 62 46 20 82
49 155 123 53 53 109 118 125 144 28 45 32 48 69 45 33 -2 42 3 68 35 38 46
45 101 29 213 -15 98 -36 137 -89 164 -22 11 -42 27 -45 36 -7 17 -20 18 -59
3z m79 -114 c53 -40 73 -80 73 -146 0 -46 -5 -62 -26 -87 -22 -27 -32 -31 -75
-31 -27 0 -69 5 -93 12 -43 11 -44 13 -39 42 18 106 78 236 110 236 9 0 32
-12 50 -26z"/>
<path d="M8982 2979 c-51 -26 -98 -80 -114 -132 -7 -23 -14 -33 -19 -26 -12
20 -30 -26 -20 -53 29 -75 214 -156 293 -129 17 6 40 8 52 5 50 -12 104 93 86
169 -10 47 -44 108 -77 139 -55 52 -129 62 -201 27z m155 -61 c56 -53 80 -162
47 -213 -14 -22 -18 -23 -37 -10 -12 7 -56 21 -97 31 -83 18 -192 64 -172 71
7 3 21 22 32 43 48 95 166 135 227 78z"/>
<path d="M6750 2936 c0 -36 37 -106 94 -177 67 -85 93 -106 108 -91 7 7 -4 25
-31 55 -23 24 -65 84 -95 133 -51 86 -76 112 -76 80z"/>
<path d="M8000 2645 c-20 -24 -4 -59 35 -78 67 -32 125 -14 110 33 -15 47
-117 79 -145 45z"/>
<path d="M7010 2598 c0 -21 106 -114 164 -143 35 -18 56 -35 58 -48 2 -11 12
-26 23 -33 23 -15 33 -11 105 44 45 34 99 43 118 20 5 -7 15 -33 22 -58 6 -25
21 -55 33 -67 20 -23 19 -36 -9 -81 -6 -9 -105 54 -119 74 -22 33 -90 67 -102
51 -27 -36 -13 -51 106 -109 64 -32 137 -64 163 -72 26 -7 60 -23 76 -34 16
-12 59 -26 97 -32 82 -13 116 -27 185 -74 29 -20 62 -38 74 -41 11 -2 72 -17
134 -32 98 -24 112 -30 112 -48 0 -24 26 -65 43 -65 6 0 23 -12 38 -26 29 -27
116 -49 151 -38 30 9 58 67 58 122 l0 50 47 16 c66 23 116 20 179 -10 62 -29
91 -27 167 14 100 54 88 80 -28 61 -68 -12 -82 -11 -125 4 -74 26 -108 22
-185 -24 l-68 -42 -20 27 c-24 34 -67 56 -107 56 -38 0 -106 -34 -120 -59 -10
-20 -11 -20 -54 0 -24 10 -88 28 -142 39 -65 14 -118 32 -160 55 -34 19 -91
41 -126 48 -34 8 -94 30 -131 49 -58 30 -66 37 -52 48 22 18 19 57 -10 105
-13 23 -34 68 -45 98 -28 75 -67 107 -128 107 -49 0 -118 -28 -146 -59 -16
-17 -21 -18 -54 -5 -20 7 -55 18 -77 23 -29 8 -51 23 -78 56 -37 43 -67 58
-67 33z m1380 -638 c0 -5 7 -10 15 -10 16 0 55 -55 55 -77 0 -16 -37 -17 -79
-2 -36 13 -35 10 -19 60 10 35 28 54 28 29z"/>
<path d="M8714 2565 c-4 -9 -2 -20 5 -25 9 -5 4 -14 -18 -29 -40 -29 -61 -70
-61 -119 0 -63 51 -94 155 -95 143 -1 250 108 169 172 -15 12 -32 21 -39 21
-6 0 -17 11 -23 24 -17 38 -55 57 -121 63 -51 5 -62 3 -67 -12z m105 -46 c23
-8 37 -24 55 -61 l24 -50 -41 -18 c-64 -28 -109 -34 -132 -17 -19 15 -19 16 4
74 37 89 38 90 90 72z"/>
<path d="M9170 2510 c-11 -11 -17 -26 -14 -34 3 -8 -2 -17 -14 -20 -28 -9 -44
-50 -32 -81 13 -34 70 -58 117 -49 49 9 113 72 113 111 0 69 -122 121 -170 73z
m83 -74 c9 -7 17 -23 17 -34 0 -38 -65 -57 -91 -26 -12 15 -11 19 9 32 12 8
22 21 22 28 0 18 20 17 43 0z"/>
<path d="M7720 2412 c-17 -14 -20 -24 -15 -45 10 -38 50 -68 78 -58 30 11 33
44 6 80 -29 39 -43 44 -69 23z"/>
<path d="M9158 2103 c-49 -19 -88 -38 -88 -42 0 -3 35 -4 78 -1 82 6 147 33
147 61 0 25 -47 19 -137 -18z"/>
<path d="M3393 6251 c-92 -31 -171 -98 -158 -133 8 -20 63 -45 118 -53 58 -9
147 16 189 54 24 21 31 36 30 61 -2 61 -41 64 -42 4 0 -12 -9 -32 -19 -45 -17
-22 -29 -24 -113 -27 l-93 -4 30 32 c34 37 91 65 152 75 50 8 63 23 38 42 -25
18 -69 16 -132 -6z"/>
<path d="M3784 6060 c-52 -21 -72 -102 -34 -140 23 -23 39 -24 92 -10 40 12
58 34 58 74 0 38 -10 55 -41 71 -31 17 -44 18 -75 5z m47 -66 c11 -14 10 -18
-6 -30 -24 -18 -34 -18 -41 1 -15 38 21 60 47 29z"/>
<path d="M4150 6063 c-32 -12 -47 -34 -48 -74 -2 -54 10 -75 60 -99 50 -24 67
-25 113 -6 30 13 35 20 35 47 0 46 -36 98 -84 120 -43 20 -52 21 -76 12z m80
-89 c22 -20 40 -41 40 -46 0 -14 -93 2 -106 18 -15 18 -6 64 12 64 8 0 32 -16
54 -36z"/>
<path d="M6384 6008 c-12 -5 -27 -21 -33 -34 -20 -46 -13 -73 30 -115 22 -21
44 -39 48 -39 5 0 19 8 32 18 13 10 36 23 52 30 58 25 60 98 4 132 -35 22 -98
25 -133 8z m91 -81 c21 -16 12 -37 -16 -37 -14 0 -19 7 -19 25 0 28 8 31 35
12z"/>
<path d="M3170 5951 c0 -39 42 -88 87 -100 52 -15 55 -6 16 36 -19 21 -40 49
-46 63 -7 14 -22 26 -35 28 -19 3 -22 -1 -22 -27z"/>
<path d="M3310 5824 c0 -15 74 -104 137 -166 74 -73 167 -138 196 -138 42 0 5
44 -148 174 -142 121 -185 151 -185 130z"/>
<path d="M5623 5789 c-3 -10 -13 -19 -22 -19 -42 0 -55 -68 -26 -136 11 -28
19 -35 37 -32 21 3 24 11 31 72 4 38 9 71 10 73 7 6 185 -25 205 -36 26 -14
29 -46 5 -56 -10 -4 -53 -10 -96 -15 -83 -8 -104 -18 -93 -46 5 -14 19 -16 99
-12 143 7 193 45 167 131 -19 65 -59 80 -234 91 -71 4 -79 3 -83 -15z"/>
<path d="M4686 5774 c-11 -10 -14 -24 -11 -38 4 -11 9 -30 12 -41 12 -42 57
-85 88 -85 69 0 119 60 99 119 -12 33 -75 65 -111 56 l-26 -6 30 -19 c44 -26
64 -59 52 -82 -23 -42 -72 -8 -85 59 -8 44 -27 59 -48 37z"/>
<path d="M6730 5715 c-33 -34 -40 -45 -26 -45 19 0 86 61 86 79 0 20 -15 11
-60 -34z"/>
<path d="M2002 5730 c-21 -13 -32 -26 -28 -35 3 -8 -2 -31 -11 -52 -8 -21 -15
-51 -15 -68 1 -16 -4 -40 -10 -53 -9 -18 -9 -26 4 -38 21 -21 92 -20 123 0 14
9 37 16 53 16 16 0 35 7 42 15 7 8 21 15 32 15 10 0 30 12 45 26 20 20 24 32
20 59 -8 51 -33 81 -90 110 -62 31 -120 32 -165 5z m108 -80 c19 -10 43 -26
52 -36 15 -18 15 -20 -2 -41 -19 -23 -41 -28 -122 -25 -56 2 -58 9 -27 83 24
54 27 55 99 19z"/>
<path d="M2572 5723 c-23 -3 -36 -12 -47 -33 -20 -38 -19 -59 4 -97 29 -47 67
-51 138 -15 159 80 101 169 -95 145z m77 -49 c17 -4 31 -10 31 -13 0 -10 -79
-61 -94 -61 -28 0 -49 53 -29 73 8 9 51 9 92 1z"/>
<path d="M918 5647 c-94 -48 -91 -40 -69 -171 15 -85 33 -121 71 -141 28 -14
34 -14 66 1 48 23 104 77 104 100 0 28 61 89 119 118 28 15 51 32 51 40 0 7
-38 32 -84 55 -113 55 -148 55 -258 -2z m200 -43 l37 -15 -32 -14 c-41 -18
-73 -50 -73 -75 0 -29 -89 -142 -108 -138 -23 4 -53 87 -39 109 7 11 7 33 0
68 -6 28 -7 51 -4 51 3 1 29 7 56 15 67 18 118 18 163 -1z"/>
<path d="M3826 5596 c-22 -8 -50 -25 -63 -38 l-23 -23 168 3 c156 4 169 3 192
-16 20 -16 24 -29 24 -63 -2 -57 -30 -82 -77 -68 -17 5 -63 14 -101 20 -48 8
-84 21 -122 45 -30 19 -54 39 -54 44 0 5 -15 13 -32 18 -45 12 -70 -2 -66 -36
4 -36 86 -92 134 -92 27 0 34 -4 34 -19 0 -10 7 -24 15 -31 18 -15 95 -15 145
0 19 5 51 10 70 10 84 0 137 99 95 179 -22 43 -99 72 -209 77 -65 3 -102 0
-130 -10z"/>
<path d="M6585 5590 c-11 -4 -33 -22 -49 -39 l-30 -31 25 0 c28 0 64 23 79 50
12 23 2 30 -25 20z"/>
<path d="M4283 5521 c-22 -6 -55 -43 -66 -73 -11 -30 13 -75 53 -102 45 -30
59 -32 85 -12 17 12 24 11 60 -14 65 -45 97 -58 201 -84 96 -24 152 -44 184
-67 12 -8 31 -8 74 1 58 12 82 34 55 51 -18 11 -100 11 -118 0 -10 -7 -24 -3
-42 10 -15 10 -74 35 -130 55 -57 20 -116 42 -131 50 -37 19 -98 81 -98 100 0
57 -68 103 -127 85z m39 -58 c22 -20 23 -41 1 -65 -36 -40 -75 0 -51 52 15 34
24 37 50 13z"/>
<path d="M1542 5513 c-13 -3 -26 -12 -29 -21 -4 -9 -17 -30 -29 -45 -13 -15
-29 -45 -35 -66 -6 -21 -20 -41 -33 -47 -29 -13 -33 -50 -6 -64 25 -13 119 10
140 35 7 8 20 15 29 15 21 0 90 36 119 63 23 22 28 56 12 86 -19 36 -100 57
-168 44z m118 -102 c0 -4 -17 -13 -39 -19 -21 -7 -44 -19 -51 -27 -13 -16 -40
-21 -40 -7 1 15 36 50 65 65 29 15 65 8 65 -12z"/>
<path d="M6358 5486 c-49 -13 -98 -41 -98 -55 0 -5 -19 -12 -41 -16 -23 -4
-78 -20 -123 -35 -62 -21 -94 -26 -136 -22 -51 4 -59 1 -100 -30 -51 -39 -59
-64 -32 -98 16 -20 29 -24 71 -24 49 0 55 3 94 45 29 30 56 49 87 58 25 7 77
28 117 46 40 18 81 31 91 28 26 -6 144 73 140 94 -4 22 -15 24 -70 9z m-390
-204 c5 -16 -44 -34 -82 -30 -36 4 -46 25 -14 30 15 2 24 11 26 26 3 23 4 23
34 5 17 -10 33 -24 36 -31z"/>
<path d="M4925 5470 c-10 -32 12 -50 62 -50 51 0 65 20 38 50 -26 28 -91 28
-100 0z"/>
<path d="M3350 5385 c-10 -13 -9 -19 6 -36 30 -33 69 -50 83 -36 16 16 14 22
-15 56 -28 34 -55 39 -74 16z"/>
<path d="M5541 5341 c-75 -26 -102 -50 -119 -103 -13 -43 -13 -50 2 -73 31
-48 65 -42 66 11 0 12 7 27 16 34 8 8 14 25 12 39 -3 22 3 27 37 37 85 26 165
9 165 -35 0 -35 -29 -46 -119 -47 -74 0 -86 -3 -89 -18 -7 -35 12 -38 104 -21
49 9 105 24 124 33 29 14 35 23 38 54 2 29 -3 43 -26 69 -26 30 -36 33 -93 36
-44 2 -80 -2 -118 -16z"/>
<path d="M2544 5305 c-13 -33 55 -66 105 -50 37 12 23 33 -33 49 -66 19 -65
19 -72 1z"/>
<path d="M525 5275 c-22 -8 -45 -21 -51 -29 -18 -25 -4 -72 33 -115 28 -33 39
-40 63 -37 39 4 55 18 79 70 26 53 26 81 1 106 -24 24 -68 25 -125 5z m95 -67
c0 -14 -40 -78 -48 -78 -7 0 -52 65 -52 75 0 8 64 22 83 17 9 -2 17 -9 17 -14z"/>
<path d="M5217 5236 c-56 -15 -72 -28 -64 -50 5 -13 23 -16 86 -16 103 0 154
23 132 58 -11 18 -102 23 -154 8z"/>
<path d="M1917 5167 c-12 -8 -18 -22 -15 -38 2 -20 9 -24 44 -27 52 -4 95 26
78 55 -14 23 -82 29 -107 10z"/>
<path d="M182 5107 c-9 -10 -8 -28 4 -73 18 -71 53 -133 109 -194 23 -25 57
-73 75 -108 46 -87 146 -173 184 -159 9 4 16 10 16 14 0 9 -55 75 -176 213
-88 98 -126 160 -159 254 -21 63 -35 76 -53 53z"/>
<path d="M2998 5108 c-9 -7 -18 -26 -21 -43 -3 -16 -9 -42 -12 -56 -9 -36 28
-78 77 -86 49 -7 127 16 145 44 28 42 -7 107 -74 142 -29 15 -95 14 -115 -1z
m85 -79 c38 -20 48 -45 20 -47 -68 -4 -106 24 -65 47 22 13 19 13 45 0z"/>
<path d="M2523 5079 c-24 -9 -40 -50 -28 -69 11 -17 86 -50 115 -50 73 0 94
72 30 101 -47 22 -90 29 -117 18z"/>
<path d="M484 5001 c-23 -10 -49 -29 -57 -42 -15 -21 -15 -24 0 -41 14 -16 15
-23 5 -38 -18 -30 -15 -46 14 -69 50 -39 154 -22 203 35 49 55 42 132 -16 162
-32 18 -102 14 -149 -7z m124 -70 c8 -5 12 -21 10 -37 -4 -38 -46 -62 -85 -48
-24 8 -28 16 -31 52 l-3 42 48 0 c26 0 54 -4 61 -9z"/>
<path d="M1348 5010 c-29 -17 -21 -37 17 -44 32 -6 95 -49 95 -65 0 -4 -15
-11 -32 -16 -22 -7 -34 -17 -36 -31 -4 -28 23 -35 65 -18 66 28 82 92 35 145
-23 26 -38 32 -78 36 -27 2 -57 -1 -66 -7z"/>
<path d="M2382 4944 c-12 -8 -22 -25 -22 -37 -1 -19 -2 -20 -13 -6 -32 42
-110 51 -212 23 -33 -9 -73 -19 -90 -23 -23 -5 -30 -12 -30 -31 0 -16 7 -26
20 -30 11 -3 37 -18 57 -33 62 -48 146 -61 214 -32 25 10 35 20 32 32 -3 14
-18 19 -76 25 -39 4 -87 15 -104 24 -30 16 -31 18 -13 25 38 15 92 9 141 -16
27 -14 57 -22 66 -19 10 3 18 0 18 -6 0 -6 12 -15 27 -21 53 -20 109 28 96 82
-14 56 -65 76 -111 43z"/>
<path d="M4820 4950 c0 -13 34 -30 61 -30 21 0 22 1 4 20 -18 20 -65 28 -65
10z"/>
<path d="M3421 4936 c-31 -37 25 -119 103 -151 29 -12 42 -13 50 -5 8 8 6 14
-7 21 -48 27 -70 57 -76 100 -5 38 -9 44 -32 47 -14 2 -31 -4 -38 -12z"/>
<path d="M1326 4932 c-12 -20 -17 -80 -6 -87 17 -10 22 -1 27 50 4 28 2 45 -5
45 -6 0 -13 -3 -16 -8z"/>
<path d="M6790 4893 c-40 -14 -53 -69 -22 -96 22 -20 63 -22 80 -5 21 21 15
75 -10 92 -24 17 -25 17 -48 9z"/>
<path d="M2976 4800 c-38 -6 -48 -41 -36 -117 13 -78 54 -120 105 -107 27 7
91 86 96 119 5 34 -10 74 -34 87 -29 16 -95 25 -131 18z m96 -87 c20 -18 10
-46 -23 -64 -28 -15 -48 5 -56 55 l-6 38 34 -7 c19 -4 42 -14 51 -22z"/>
<path d="M980 4765 c0 -28 5 -38 25 -47 22 -10 30 -8 53 9 28 21 37 63 15 70
-7 3 -9 -3 -6 -16 4 -17 1 -21 -20 -21 -16 0 -26 7 -30 20 -3 11 -12 20 -21
20 -12 0 -16 -10 -16 -35z"/>
<path d="M6383 4747 c-34 -16 -44 -28 -49 -53 -7 -38 10 -74 35 -74 32 0 118
30 131 45 18 22 14 77 -6 92 -25 18 -62 15 -111 -10z m77 -46 c0 -18 -25 -31
-62 -31 -26 0 -22 29 5 40 37 15 57 12 57 -9z"/>
<path d="M3644 4745 c10 -8 24 -11 29 -8 6 4 2 10 -9 14 -31 12 -40 9 -20 -6z"/>
<path d="M3710 4711 c0 -21 13 -41 26 -41 17 0 17 5 4 31 -11 20 -30 26 -30
10z"/>
<path d="M4348 4694 c-23 -12 -28 -21 -28 -53 0 -39 17 -64 42 -60 7 1 21 -1
30 -5 11 -5 32 1 58 15 60 34 68 89 15 109 -37 14 -85 12 -117 -6z m102 -49
c0 -3 -17 -12 -37 -20 -29 -12 -38 -13 -45 -3 -14 23 -8 28 37 28 25 0 45 -2
45 -5z"/>
<path d="M5948 4659 c-51 -26 -71 -66 -56 -110 6 -19 12 -40 14 -46 10 -40
142 9 182 67 28 42 28 55 -3 85 -30 31 -84 33 -137 4z m81 -60 c41 -14 41 -33
0 -25 -17 3 -42 6 -55 6 -17 0 -22 4 -18 15 7 18 29 19 73 4z"/>
<path d="M3760 4650 c0 -21 63 -79 107 -98 50 -21 123 -38 123 -29 0 3 -26 20
-57 38 -32 18 -79 47 -106 66 -48 34 -67 40 -67 23z"/>
<path d="M4065 4648 c-46 -17 -51 -24 -47 -68 5 -53 36 -75 89 -65 42 8 88 37
104 66 13 25 -9 64 -37 66 -11 1 -32 4 -49 7 -16 3 -43 0 -60 -6z m75 -58
c-22 -17 -80 -28 -80 -15 0 10 56 34 80 34 l25 1 -25 -20z"/>
<path d="M2223 4623 c-19 -7 -16 -38 6 -57 11 -10 35 -19 53 -19 26 -2 33 2
33 16 0 21 -72 68 -92 60z"/>
<path d="M353 4602 c-4 -9 -16 -25 -28 -34 -26 -20 -45 -80 -45 -140 0 -34 6
-50 23 -66 13 -12 29 -22 35 -22 7 0 12 -6 12 -13 0 -19 48 -61 92 -82 45 -20
71 -10 87 36 22 62 6 228 -26 277 -15 25 -56 45 -111 55 -26 5 -34 3 -39 -11z
m112 -157 c7 -52 2 -121 -9 -132 -6 -6 -60 23 -75 41 -20 24 -10 135 14 169
l20 27 22 -25 c14 -15 24 -45 28 -80z"/>
<path d="M587 4613 c-15 -14 -6 -44 16 -52 26 -11 67 -54 124 -131 43 -59 108
-102 179 -118 51 -11 84 0 77 26 -3 12 1 22 10 25 11 4 23 -10 41 -47 24 -50
68 -88 83 -73 4 4 -9 39 -28 78 -28 59 -33 81 -31 123 2 28 -1 64 -8 80 -10
28 -11 29 -73 24 -70 -6 -143 -34 -174 -67 l-20 -21 -53 61 c-68 78 -123 113
-143 92z m403 -155 c0 -43 -52 -81 -88 -65 -12 6 -21 14 -20 19 2 6 96 75 106
77 1 1 2 -14 2 -31z"/>
<path d="M1534 4539 c-42 -12 -63 -37 -43 -50 25 -16 135 -11 150 7 11 14 10
19 -10 35 -25 20 -48 22 -97 8z"/>
<path d="M2647 4480 c-27 -5 -51 -11 -54 -14 -13 -12 11 -24 63 -30 62 -7 144
-39 144 -55 0 -14 -8 -18 -87 -39 l-70 -20 -63 59 c-72 70 -94 72 -98 13 -2
-29 3 -48 19 -68 30 -38 80 -59 113 -46 18 7 28 5 37 -6 14 -17 30 -16 117 9
55 15 97 46 105 76 7 30 -19 77 -54 99 -41 25 -107 33 -172 22z"/>
<path d="M5137 4472 c-36 -40 -9 -82 53 -82 29 0 42 5 50 20 28 53 -62 107
-103 62z"/>
<path d="M4663 4463 c-6 -16 21 -43 43 -43 19 0 27 19 15 34 -18 22 -51 27
-58 9z"/>
<path d="M1886 4436 c-72 -11 -88 -25 -65 -53 12 -13 29 -15 120 -9 112 7 120
5 126 -37 3 -18 -49 -57 -77 -57 -9 0 -32 -8 -51 -18 -35 -18 -109 -19 -109
-2 0 4 7 24 15 43 18 43 18 47 5 47 -6 0 -22 -22 -37 -49 -15 -26 -36 -52 -48
-57 -12 -6 -20 -18 -20 -34 l0 -25 110 3 c124 4 148 14 225 98 49 53 54 101
15 139 -20 21 -33 25 -82 24 -32 -1 -89 -7 -127 -13z"/>
<path d="M4227 4391 c45 -16 102 -43 128 -61 114 -78 214 -100 505 -110 134
-4 254 -13 280 -20 25 -7 81 -13 125 -14 67 0 90 4 138 26 51 24 68 44 52 60
-3 3 -47 -3 -98 -14 -92 -19 -93 -19 -212 2 -102 18 -153 20 -335 18 l-215 -3
-55 32 c-77 44 -254 102 -331 108 l-64 5 82 -29z"/>
<path d="M3889 4361 c-64 -20 -67 -25 -62 -98 6 -76 33 -133 64 -133 20 0 140
36 175 52 39 18 47 54 25 103 -32 73 -112 103 -202 76z m99 -57 c12 -4 29 -19
37 -34 13 -25 13 -30 -2 -41 -9 -8 -42 -19 -74 -25 -48 -9 -59 -8 -64 4 -7 20
-6 65 3 78 14 21 57 29 100 18z"/>
<path d="M1311 4267 c-13 -17 40 -123 67 -131 9 -3 24 -19 33 -34 18 -31 82
-68 88 -50 2 6 -4 15 -14 20 -9 6 -31 23 -49 39 -23 21 -27 28 -14 29 20 0 58
46 58 70 0 10 -9 29 -21 44 -18 23 -28 26 -79 26 -36 0 -62 -5 -69 -13z m107
-54 c-5 -25 -18 -19 -41 17 l-20 32 32 -16 c20 -11 31 -23 29 -33z"/>
<path d="M1180 4215 c0 -42 60 -110 113 -129 42 -14 34 9 -25 75 -62 68 -88
84 -88 54z"/>
<path d="M4288 4218 l-36 -10 2 -56 c2 -62 10 -82 32 -82 8 0 23 -5 33 -12 25
-15 83 7 79 31 -3 12 -14 16 -45 14 -34 -1 -42 2 -52 23 -6 14 -11 29 -11 34
0 16 74 11 98 -6 49 -34 73 18 26 55 -29 22 -66 25 -126 9z"/>
<path d="M3126 4204 c-19 -18 -19 -26 -5 -79 18 -62 67 -131 194 -268 82 -88
129 -130 150 -135 22 -6 30 -14 32 -33 1 -15 0 -18 -3 -6 -9 30 -29 13 -29
-24 0 -31 3 -34 33 -37 27 -3 35 2 50 27 9 17 20 31 24 31 14 0 59 -64 65 -92
6 -32 35 -55 105 -86 26 -11 68 -35 93 -52 116 -80 239 -120 365 -119 l65 0
-75 35 c-41 20 -104 47 -140 61 -36 13 -106 47 -156 74 -52 28 -111 52 -137
55 -49 7 -75 28 -98 79 -9 19 -30 37 -56 49 -23 11 -46 30 -52 43 -6 13 -15
23 -21 23 -6 0 -41 30 -78 68 -37 37 -89 84 -116 106 -36 29 -57 58 -87 119
-21 45 -39 94 -39 109 0 30 -31 68 -54 68 -8 0 -22 -7 -30 -16z"/>
<path d="M5640 4154 c-17 -15 -30 -34 -28 -43 2 -9 -11 -29 -29 -44 -53 -47
-43 -117 17 -117 17 0 29 -8 35 -22 22 -49 75 -29 75 28 0 26 10 45 39 77 51
55 59 85 31 120 -30 38 -95 38 -140 1z m60 -58 c0 -6 -60 -66 -66 -66 -2 0 -4
16 -4 35 0 33 2 35 35 35 19 0 35 -2 35 -4z"/>
<path d="M5074 4117 c-24 -22 -27 -29 -18 -44 6 -10 15 -43 19 -73 5 -40 15
-61 35 -82 31 -30 50 -34 99 -17 40 14 48 45 32 124 -15 73 -43 104 -98 112
-32 4 -45 1 -69 -20z m99 -75 c19 -17 20 -53 1 -59 -14 -5 -74 56 -74 75 0 18
47 8 73 -16z"/>
<path d="M898 4099 c-10 -5 -18 -19 -18 -29 0 -13 -5 -17 -15 -14 -47 18 1
-112 50 -134 41 -19 76 -15 82 8 3 11 10 20 15 20 14 0 40 69 33 90 -17 53
-101 86 -147 59z m52 -59 c25 -25 26 -45 3 -35 -10 4 -25 8 -33 9 -33 4 -42
17 -23 32 24 18 30 17 53 -6z"/>
<path d="M1685 4010 c-10 -17 73 -67 137 -84 35 -8 110 -20 168 -26 98 -11
109 -10 163 10 61 23 75 36 58 53 -8 8 -30 8 -81 0 -96 -15 -260 0 -356 32
-86 29 -81 28 -89 15z"/>
<path d="M2533 3827 c-49 -18 -54 -28 -60 -114 -5 -66 -3 -82 11 -96 25 -24
37 -22 104 23 109 73 142 127 106 178 -13 19 -24 22 -72 21 -31 0 -71 -6 -89
-12z m107 -75 c0 -10 -7 -28 -16 -40 -20 -29 -79 -31 -94 -3 -24 45 -10 57 73
60 29 1 37 -3 37 -17z"/>
<path d="M3983 3788 c-21 -27 -21 -47 -2 -72 15 -20 30 -26 58 -26 42 0 61 14
61 45 0 25 -34 60 -49 51 -5 -4 -12 -2 -16 4 -9 14 -41 13 -52 -2z"/>
<path d="M1877 3713 c-17 -16 -5 -42 24 -52 62 -22 79 -4 36 37 -23 22 -48 28
-60 15z"/>
<path d="M2804 3695 c-9 -22 14 -45 45 -45 35 0 54 14 49 36 -4 26 -85 33 -94
9z"/>
<path d="M4741 3574 c-39 -32 -39 -44 0 -66 40 -23 64 -23 89 2 11 11 32 20
48 20 36 0 56 14 49 34 -5 12 -20 16 -61 16 -30 0 -58 5 -61 10 -10 17 -32 11
-64 -16z"/>
<path d="M5484 3542 c5 -8 66 -4 66 4 0 2 -16 4 -36 4 -19 0 -33 -4 -30 -8z"/>
<path d="M4732 3390 c-43 -10 -50 -17 -54 -60 -2 -25 -10 -38 -25 -45 -28 -12
-29 -25 -2 -59 52 -66 150 -73 241 -17 27 17 53 31 58 31 5 0 15 7 24 15 18
18 12 42 -13 50 -9 2 -21 15 -26 27 -6 12 -25 33 -44 45 -36 24 -93 29 -159
13z m125 -91 l28 -10 -25 -20 c-39 -30 -95 -42 -136 -29 -39 13 -37 10 -24 44
9 24 14 26 69 26 33 0 72 -5 88 -11z"/>
<path d="M5860 3370 c-8 -5 -25 -10 -37 -10 -29 0 -103 -30 -103 -41 0 -14 23
-11 59 7 23 11 45 14 79 9 34 -4 53 -2 67 9 11 8 17 17 14 20 -12 12 -65 16
-79 6z"/>
<path d="M5103 3348 c-13 -6 -23 -19 -23 -30 0 -14 8 -18 39 -18 43 0 60 -20
36 -44 -19 -18 -56 -9 -62 15 -6 22 -23 15 -23 -9 0 -19 42 -62 60 -62 23 0
81 42 89 64 24 63 -50 116 -116 84z"/>
<path d="M5404 3345 c-4 -8 -1 -22 6 -30 10 -12 9 -15 -9 -15 -11 0 -21 5 -21
10 0 6 -7 10 -15 10 -26 0 -19 -57 10 -76 34 -22 85 -3 85 32 0 22 4 24 49 24
58 0 74 16 41 42 -29 24 -138 26 -146 3z"/>
<path d="M4323 3328 c2 -7 19 -13 37 -13 18 0 35 6 38 13 2 8 -9 12 -38 12
-29 0 -40 -4 -37 -12z"/>
<path d="M4465 3320 c-4 -6 -1 -18 6 -27 10 -12 26 -14 66 -10 67 7 82 16 58
34 -22 15 -121 18 -130 3z"/>
<path d="M5618 3319 c-22 -12 -23 -23 -2 -43 31 -31 94 -15 94 25 0 28 -57 39
-92 18z"/>
<path d="M5475 3176 c-24 -24 -26 -32 -21 -69 4 -23 7 -53 7 -67 2 -67 50 -79
118 -30 50 37 66 67 57 113 -9 46 -36 68 -90 74 -39 5 -48 2 -71 -21z m70 -68
c24 -11 34 -27 18 -29 -64 -10 -69 -8 -57 25 7 19 6 19 39 4z"/>
<path d="M4054 3139 c-64 -50 -64 -60 -3 -121 35 -35 40 -37 94 -36 53 1 59 4
76 32 69 113 -61 210 -167 125z m138 -60 c20 -11 20 -11 -2 -34 -24 -25 -22
-26 -64 23 l-19 22 32 0 c18 0 41 -5 53 -11z"/>
<path d="M2905 3000 c-3 -5 -34 -10 -68 -10 -62 0 -207 -28 -217 -41 -3 -4
-140 -9 -305 -11 -265 -4 -305 -6 -342 -23 -24 -10 -43 -24 -43 -32 0 -9 -14
-13 -42 -13 -80 -1 -245 -29 -309 -53 -126 -48 -219 -96 -219 -112 0 -19 -15
-25 -220 -85 -223 -65 -313 -101 -401 -161 -103 -70 -135 -104 -175 -179 -19
-36 -41 -76 -49 -90 -40 -73 -73 -148 -112 -260 -103 -294 -98 -274 -86 -344
6 -35 32 -112 57 -171 46 -106 46 -107 40 -193 -7 -101 8 -215 37 -281 28 -63
69 -104 167 -163 46 -28 127 -85 180 -126 290 -229 420 -308 539 -332 94 -18
120 -29 211 -86 107 -67 183 -97 227 -88 23 4 65 -5 146 -31 172 -56 266 -73
521 -96 277 -25 389 -21 506 17 78 25 82 25 133 10 81 -24 178 -20 315 14 65
16 169 34 229 40 125 12 192 25 250 50 22 9 67 25 100 36 101 32 282 127 440
232 283 188 409 348 507 647 32 99 43 203 41 390 -4 256 -35 351 -163 504 -39
46 -88 114 -110 151 -21 37 -58 83 -82 103 -51 43 -65 57 -121 119 -36 39 -53
49 -117 68 -134 38 -157 50 -234 118 -157 138 -187 160 -239 175 -221 68 -343
110 -411 141 -43 20 -100 39 -125 43 -25 3 -74 18 -107 34 -34 16 -68 29 -76
29 -8 0 -69 16 -137 35 -140 40 -128 38 -136 25z m86 -99 c30 -17 66 -33 81
-37 16 -3 28 -9 28 -14 0 -10 -103 -50 -130 -50 -31 0 -50 28 -50 76 0 53 -16
57 -36 9 -22 -54 -18 -80 18 -110 30 -26 37 -27 97 -21 70 6 141 36 168 69 16
19 27 22 86 21 53 -2 74 -7 90 -22 77 -69 341 -161 463 -162 45 0 65 -14 215
-156 94 -89 139 -115 268 -159 125 -42 162 -64 203 -121 17 -24 44 -49 61 -56
19 -9 38 -31 57 -68 15 -30 44 -79 64 -109 38 -56 43 -66 26 -56 -6 4 -35 -1
-65 -10 -57 -16 -83 -43 -63 -63 7 -7 11 -32 9 -56 -3 -49 21 -106 45 -106 8
0 19 -12 24 -26 7 -16 16 -24 27 -22 17 3 25 20 38 78 3 14 25 39 50 57 l45
33 21 -41 c33 -66 50 -171 48 -299 l-2 -116 -51 -18 c-39 -14 -68 -36 -121
-91 -47 -49 -80 -75 -102 -80 -17 -3 -81 -39 -142 -80 -61 -40 -127 -76 -146
-79 -28 -6 -35 -11 -35 -30 0 -18 7 -25 26 -29 41 -7 88 10 161 60 38 25 104
63 149 83 65 31 88 48 125 94 33 41 51 55 71 56 18 0 35 11 53 33 l26 32 -5
-35 c-3 -19 -11 -71 -17 -115 -20 -144 -50 -214 -165 -381 -106 -153 -204
-231 -469 -369 -82 -43 -184 -100 -226 -127 -45 -28 -88 -48 -105 -48 -16 0
-90 -21 -164 -46 -120 -41 -149 -46 -265 -54 -87 -6 -168 -18 -245 -38 -109
-27 -120 -28 -208 -19 -74 9 -121 7 -235 -6 -170 -21 -338 -22 -427 -3 -36 8
-126 39 -200 69 -202 83 -237 91 -352 84 -92 -6 -103 -4 -183 25 -71 25 -83
33 -73 45 20 25 -22 55 -84 61 -45 4 -59 10 -93 43 -22 21 -76 54 -120 75
-262 120 -298 141 -395 228 -55 49 -131 105 -180 132 -144 81 -170 120 -191
286 -5 46 -16 106 -23 133 -8 28 -14 66 -15 85 0 19 -14 85 -32 145 -17 62
-33 146 -36 192 l-6 83 73 145 c50 101 77 145 89 145 23 0 41 20 41 46 0 12 7
38 15 57 8 20 15 51 15 68 0 26 13 44 73 103 90 89 174 133 407 216 96 34 201
75 232 91 32 16 64 29 73 29 8 0 44 13 78 29 l63 28 16 -28 c9 -15 25 -32 35
-37 41 -22 107 42 107 102 l0 34 110 22 c61 11 120 26 132 33 12 7 37 21 55
32 32 18 53 20 347 20 283 0 315 2 326 17 14 18 66 24 197 21 65 -1 84 -6 130
-32z m-1339 -165 c14 -33 4 -56 -25 -56 -47 0 -64 49 -24 68 32 16 36 15 49
-12z m3063 -888 c14 -6 25 -14 25 -17 0 -3 -18 -18 -39 -33 -43 -31 -51 -25
-51 33 0 33 20 38 65 17z"/>
<path d="M2644 2782 c-6 -4 -15 -22 -19 -40 -12 -57 39 -107 85 -82 31 17 26
60 -13 98 -36 35 -37 35 -53 24z m46 -94 c0 -6 -6 -5 -15 2 -8 7 -15 14 -15
16 0 2 7 1 15 -2 8 -4 15 -11 15 -16z"/>
<path d="M2256 2685 c-38 -50 -32 -79 16 -83 29 -3 43 2 63 22 43 43 29 96
-26 96 -19 0 -35 -10 -53 -35z"/>
<path d="M1842 2583 c-27 -5 -41 -32 -22 -43 9 -6 7 -11 -9 -19 -28 -16 -30
-76 -2 -91 28 -14 57 -12 71 5 10 13 10 19 -3 33 -16 18 -13 62 4 62 19 0 59
-24 59 -36 0 -20 19 -27 36 -13 21 18 13 59 -16 80 -27 19 -81 30 -118 22z"/>
<path d="M3545 2572 c-36 -12 -51 -23 -52 -37 -2 -11 -6 -34 -9 -51 -3 -18 -1
-41 5 -52 8 -15 7 -23 -4 -32 -18 -15 -19 -34 -2 -48 9 -8 46 -8 128 -1 63 6
136 12 163 15 71 6 110 32 114 75 4 45 -22 69 -103 97 -33 11 -78 28 -100 36
-51 19 -78 19 -140 -2z m100 -65 c28 -13 74 -32 104 -42 l54 -18 -24 -18 c-14
-11 -30 -16 -39 -12 -8 4 -53 9 -100 11 -47 2 -90 8 -97 14 -6 5 -11 27 -10
49 1 36 3 39 32 39 16 0 53 -11 80 -23z"/>
<path d="M3058 2532 c-34 -21 -37 -63 -8 -92 28 -28 57 -25 91 9 34 35 36 54
9 81 -24 24 -55 24 -92 2z m42 -52 c0 -5 -4 -10 -9 -10 -6 0 -13 5 -16 10 -3
6 1 10 9 10 9 0 16 -4 16 -10z"/>
<path d="M1091 2507 c-30 -30 12 -94 86 -131 57 -28 113 -14 133 35 27 64 -22
103 -132 105 -43 1 -81 -3 -87 -9z m170 -37 c22 -12 25 -42 6 -58 -10 -9 -22
-5 -49 13 -52 35 -56 55 -12 55 19 0 44 -5 55 -10z"/>
<path d="M910 2255 c-7 -8 -19 -15 -26 -15 -20 0 -17 -44 4 -63 23 -21 41 -21
70 -1 28 20 30 69 3 84 -26 14 -36 13 -51 -5z"/>
<path d="M3050 2231 c0 -10 7 -24 15 -31 20 -17 9 -30 -26 -30 -28 0 -39 13
-19 25 10 6 2 35 -11 35 -15 0 -49 -43 -49 -62 0 -33 36 -58 86 -58 37 0 51 5
75 29 34 35 36 49 8 85 -25 32 -79 37 -79 7z"/>
<path d="M1500 2226 c-6 -8 -28 -16 -48 -18 -34 -3 -37 -5 -40 -38 -3 -44 28
-97 66 -111 53 -21 122 11 122 57 0 17 5 21 19 17 40 -10 33 45 -10 86 -27 25
-90 29 -109 7z m45 -73 c23 -28 24 -43 1 -43 -17 0 -56 38 -56 55 0 24 29 17
55 -12z"/>
<path d="M2595 2136 c-21 -21 -22 -28 -14 -65 10 -45 36 -91 50 -91 18 0 20
29 5 59 -33 64 -14 76 64 40 l45 -21 -28 -22 c-31 -25 -34 -58 -5 -64 25 -5
97 47 104 75 15 59 -54 113 -146 113 -40 0 -56 -5 -75 -24z"/>
<path d="M1864 2076 c-32 -14 -44 -33 -44 -69 1 -48 46 -77 120 -77 47 0 55 3
86 37 44 47 44 77 2 103 -39 23 -117 26 -164 6z m116 -51 c17 -9 30 -18 30
-21 0 -3 -15 -11 -34 -19 -57 -24 -125 0 -110 39 8 21 74 22 114 1z"/>
<path d="M3820 2062 c-26 -21 -20 -42 12 -42 33 0 88 -47 85 -73 -3 -35 46
-36 69 -2 16 24 16 29 1 60 -28 59 -124 92 -167 57z"/>
<path d="M3754 2006 c-11 -45 25 -87 76 -88 28 -1 49 13 50 33 0 3 -18 14 -40
24 -22 10 -40 24 -40 30 0 11 -21 25 -36 25 -2 0 -6 -11 -10 -24z"/>
<path d="M527 1963 c-15 -14 -5 -81 19 -132 13 -30 50 -86 80 -123 30 -37 84
-115 119 -172 36 -57 83 -120 104 -139 41 -37 109 -63 124 -48 6 6 -34 54 -95
118 -161 168 -267 308 -299 395 -12 35 -11 39 6 52 19 14 19 15 1 35 -19 21
-46 27 -59 14z"/>
<path d="M1158 1855 c-22 -13 -26 -21 -26 -59 1 -36 7 -51 29 -72 25 -24 32
-26 54 -16 33 15 34 45 2 37 -16 -4 -29 0 -41 14 -18 20 -18 21 10 31 30 12
74 0 74 -20 0 -19 30 -10 45 14 19 28 9 58 -25 76 -27 14 -90 12 -122 -5z"/>
<path d="M1530 1836 c-73 -19 -84 -29 -86 -77 -2 -32 -8 -48 -23 -58 -53 -35
5 -97 113 -121 76 -17 239 -14 298 6 92 30 181 139 148 179 -16 20 -94 18
-183 -3 l-68 -16 -32 36 c-51 58 -97 73 -167 54z m130 -97 l38 -44 91 3 c50 2
91 0 91 -3 0 -3 -26 -18 -57 -33 -79 -36 -189 -38 -280 -3 -35 13 -63 28 -63
34 0 6 12 30 26 55 26 44 27 44 71 39 38 -4 52 -12 83 -48z"/>
<path d="M810 1825 c-14 -8 -33 -14 -42 -15 -24 0 -29 -13 -18 -49 5 -18 10
-54 12 -80 l3 -48 45 5 c41 4 50 0 95 -37 57 -47 88 -54 83 -18 -1 13 5 32 15
41 24 24 22 40 -14 123 -21 47 -40 75 -56 82 -33 15 -93 13 -123 -4z m127 -71
c13 -8 30 -28 38 -45 15 -28 15 -33 0 -55 -9 -14 -13 -29 -10 -34 15 -24 -17
-7 -36 19 -30 40 -72 57 -105 42 -14 -6 -26 -11 -27 -11 -2 0 -3 15 -3 33 0
26 7 39 31 56 32 23 70 22 112 -5z"/>
<path d="M557 1733 c-11 -10 -8 -73 3 -73 13 0 32 49 26 67 -6 14 -19 17 -29
6z"/>
<path d="M3085 1611 c-54 -33 -66 -54 -63 -107 3 -42 6 -49 25 -52 28 -4 46
36 41 86 -4 30 -2 32 28 32 43 0 80 -15 87 -35 7 -18 -16 -30 -75 -40 -32 -5
-38 -10 -38 -30 0 -32 33 -49 82 -42 114 15 156 126 69 184 -43 29 -113 31
-156 4z"/>
<path d="M4260 1604 c-73 -27 -90 -38 -90 -60 0 -13 5 -26 10 -29 6 -3 10 -25
10 -48 0 -63 26 -97 85 -113 99 -26 188 -13 201 29 10 33 -12 42 -106 42 l-89
0 -8 50 c-11 64 -5 66 126 58 99 -6 99 -6 105 -34 3 -16 3 -35 0 -42 -3 -8 0
-26 5 -40 13 -35 47 -36 62 -3 25 53 -17 138 -85 173 -31 16 -195 29 -226 17z"/>
<path d="M3575 1413 c-91 -23 -62 -150 39 -169 30 -5 44 -2 64 13 50 37 55
108 9 137 -26 17 -83 27 -112 19z m50 -83 c3 -5 2 -10 -4 -10 -5 0 -13 5 -16
10 -3 6 -2 10 4 10 5 0 13 -4 16 -10z"/>
<path d="M1456 1354 c-35 -34 -12 -90 41 -100 25 -5 37 -1 57 19 17 17 23 32
19 46 -12 46 -85 68 -117 35z"/>
<path d="M1017 1333 c-23 -22 17 -83 81 -124 57 -36 97 -39 89 -7 -4 12 -2 28
4 34 13 16 -3 49 -32 65 -12 6 -36 8 -53 5 -25 -5 -37 -2 -51 14 -19 21 -28
24 -38 13z"/>
<path d="M1853 1218 c-29 -10 -33 -15 -33 -45 0 -44 24 -90 51 -98 35 -12 43
8 20 53 -12 23 -21 46 -21 52 0 14 86 12 129 -3 45 -16 49 -32 11 -46 -16 -6
-43 -16 -60 -22 -20 -8 -30 -18 -30 -31 0 -19 5 -20 55 -16 42 4 64 12 93 35
50 40 51 78 3 110 -28 19 -46 23 -110 22 -42 -1 -91 -6 -108 -11z"/>
<path d="M3285 1201 c-21 -4 -31 -13 -33 -29 -4 -26 13 -52 34 -52 7 0 24 -11
38 -25 56 -56 138 -4 110 70 -14 36 -77 52 -149 36z"/>
<path d="M1300 1130 c0 -30 111 -138 179 -174 44 -23 76 -31 184 -43 120 -13
152 -22 199 -55 19 -13 34 -6 23 11 -3 6 -26 23 -51 37 -38 22 -64 28 -147 34
-56 5 -117 13 -136 19 -49 15 -110 58 -155 108 -22 24 -52 53 -68 64 l-28 20
0 -21z"/>
<path d="M874 1120 c-17 -6 -49 -27 -71 -47 -22 -21 -48 -43 -59 -49 -14 -8
-18 -21 -18 -50 1 -43 35 -118 57 -127 22 -8 65 4 83 24 9 10 26 19 36 19 33
0 125 68 142 104 22 46 20 70 -7 102 -19 22 -33 28 -78 30 -30 2 -68 -1 -85
-6z m116 -83 c0 -20 -50 -82 -80 -100 -33 -20 -77 -11 -84 16 -13 49 -7 68 27
82 43 19 137 20 137 2z"/>
<path d="M3756 1074 c-9 -8 -16 -19 -16 -23 0 -17 47 -76 71 -90 51 -28 118
24 98 76 -11 30 -44 46 -68 34 -14 -8 -22 -7 -31 4 -16 19 -35 19 -54 -1z"/>
<path d="M4593 1003 c-27 -5 -44 -25 -48 -55 -1 -13 -10 -43 -19 -67 -21 -56
-20 -74 3 -102 l19 -23 55 28 c30 15 74 45 97 66 37 34 41 43 38 76 -5 62 -64
93 -145 77z m76 -79 c12 -11 -13 -53 -39 -64 -38 -16 -43 -11 -25 24 8 16 15
35 15 43 0 10 6 12 23 7 12 -3 24 -8 26 -10z"/>
<path d="M2528 974 c-99 -24 -212 -91 -202 -119 4 -8 12 -15 20 -15 8 0 20
-15 28 -33 18 -44 71 -104 109 -123 28 -15 70 -11 128 11 11 4 13 -6 11 -49
-6 -98 42 -117 181 -73 60 20 75 21 85 10 27 -28 189 1 200 36 4 11 -4 13 -39
7 -24 -4 -64 -9 -89 -12 l-45 -6 41 26 c46 29 74 65 74 96 0 12 14 39 32 61
29 35 31 43 22 77 -7 29 -17 41 -47 56 -35 17 -46 17 -115 6 -42 -7 -81 -14
-88 -17 -6 -2 -33 14 -58 36 -46 40 -49 41 -119 40 -40 0 -98 -7 -129 -15z
m208 -94 c45 -39 71 -44 166 -33 43 5 81 6 83 3 5 -8 -21 -47 -63 -94 -33 -38
-131 -90 -189 -102 l-33 -6 0 55 c0 30 -3 62 -6 71 -8 20 -49 21 -104 1 -72
-25 -93 -21 -129 30 -18 25 -31 52 -28 59 3 8 42 19 99 29 144 23 165 22 204
-13z"/>
<path d="M1982 918 c-24 -24 -13 -57 30 -88 41 -30 72 -37 97 -21 19 12 7 42
-36 85 -37 37 -70 45 -91 24z"/>
<path d="M4065 901 c-40 -18 -80 -63 -68 -75 13 -13 80 -5 110 14 34 21 58 55
48 70 -9 15 -46 12 -90 -9z"/>
<path d="M1387 814 c-39 -21 -29 -39 21 -39 46 0 95 -30 99 -61 2 -10 -6 -30
-17 -44 l-20 -25 -20 25 c-11 14 -18 30 -16 35 5 16 -13 45 -29 45 -21 0 -48
-46 -40 -69 9 -31 45 -72 72 -82 34 -13 75 -1 71 21 -2 10 5 27 15 38 45 50
34 142 -18 162 -37 14 -85 12 -118 -6z"/>
<path d="M3790 780 c-19 -5 -87 -27 -150 -50 -74 -27 -152 -46 -220 -56 -133
-18 -234 -44 -221 -57 5 -5 49 -12 98 -14 90 -5 226 18 393 68 88 26 170 74
170 99 0 22 -12 23 -70 10z"/>
<path d="M2205 740 c-10 -15 85 -70 121 -70 44 0 50 13 23 50 -24 31 -56 39
-77 18 -9 -9 -15 -9 -24 0 -15 15 -35 16 -43 2z"/>
<path d="M4204 729 c-57 -17 -129 -71 -129 -98 0 -43 26 -47 100 -16 76 33
128 76 123 102 -4 21 -47 27 -94 12z"/>
<path d="M3760 495 c-17 -20 -9 -45 21 -67 51 -38 94 17 49 62 -24 24 -53 26
-70 5z"/>
<path d="M3082 489 c-13 -5 -26 -18 -29 -29 -4 -15 -11 -18 -28 -14 -17 4 -26
0 -35 -15 -26 -49 26 -151 76 -151 28 0 31 18 10 59 -8 15 -16 45 -18 66 -2
31 1 40 15 43 22 5 47 -51 47 -107 0 -49 11 -57 41 -32 20 16 24 28 22 71 -2
80 -48 129 -101 109z"/>
<path d="M2284 339 c-10 -16 10 -31 46 -32 41 -2 49 16 15 31 -32 15 -52 15
-61 1z"/>
</g>
</svg>
