<?xml version="1.0" standalone="no"?>
<!DOCTYPE svg PUBLIC "-//W3C//DTD SVG 20010904//EN"
 "http://www.w3.org/TR/2001/REC-SVG-20010904/DTD/svg10.dtd">
<svg version="1.0" xmlns="http://www.w3.org/2000/svg"
 width="536.000000pt" height="536.000000pt" viewBox="0 0 536.000000 536.000000"
 preserveAspectRatio="xMidYMid meet">
<metadata>
Created by potrace 1.16, written by Peter Selinger 2001-2019
</metadata>
<g transform="translate(0.000000,536.000000) scale(0.100000,-0.100000)"
fill="#000000" stroke="none">
<path d="M4440 4884 c-132 -13 -279 -27 -457 -44 -60 -5 -155 -14 -213 -20
-58 -6 -224 -21 -370 -35 -391 -37 -463 -44 -590 -58 -87 -9 -380 -11 -1188
-9 -831 3 -1080 1 -1103 -9 -65 -26 -66 97 12 -1716 52 -1227 74 -1653 83
-1668 35 -53 45 -54 456 -15 192 19 166 27 204 -70 176 -452 645 -743 1129
-700 390 34 728 264 905 615 35 72 79 197 97 279 l6 28 690 -7 689 -7 30 32
c22 24 30 42 30 69 0 21 -31 768 -70 1661 l-70 1624 -32 33 c-37 38 -37 38
-238 17z m140 -1556 c32 -744 60 -1425 62 -1513 l3 -159 -605 3 c-333 1 -606
4 -607 5 -1 1 -9 179 -18 396 -19 475 -19 473 -54 512 -24 27 -33 31 -81 29
-85 -1 -213 -45 -263 -89 -9 -8 -20 -13 -22 -10 -3 3 -12 152 -20 331 -13 279
-18 332 -35 371 -26 61 -92 131 -145 153 l-44 18 -5 70 c-8 102 -48 1066 -44
1070 2 2 59 8 128 14 69 7 171 16 228 21 56 6 148 14 205 19 56 6 176 17 267
25 91 9 262 25 380 36 118 11 267 25 330 31 167 16 274 25 279 22 2 -1 29
-611 61 -1355z m-2083 1178 c1 -1 11 -220 22 -486 11 -267 23 -522 26 -567 l6
-82 -30 -16 c-56 -28 -104 -79 -133 -140 -25 -53 -28 -71 -28 -157 l0 -97 -48
6 c-63 7 -161 -19 -218 -57 -24 -17 -44 -34 -44 -38 -1 -4 -9 -17 -20 -30 -19
-23 -20 -23 -65 -8 -138 47 -289 -15 -355 -147 l-31 -62 -92 0 c-83 0 -97 -3
-146 -30 -66 -37 -125 -102 -145 -162 -20 -58 -20 -159 -1 -578 10 -229 11
-321 4 -326 -6 -4 -48 -9 -93 -13 -44 -3 -130 -11 -189 -17 -59 -7 -110 -9
-113 -6 -5 5 -133 2872 -134 2991 l0 38 913 -7 c501 -4 913 -8 914 -9z m214
-1355 c18 -19 29 -40 29 -58 0 -15 13 -323 29 -683 19 -437 33 -664 41 -681
20 -45 77 -65 125 -45 60 25 65 49 55 252 -9 180 -6 218 23 285 26 63 116 149
155 149 9 0 33 -558 33 -785 0 -149 -12 -216 -55 -311 -111 -242 -332 -428
-601 -506 -112 -32 -352 -32 -467 0 -357 98 -625 409 -667 772 -17 141 -42
796 -32 823 20 51 75 74 127 52 61 -25 63 -35 75 -331 7 -192 15 -278 25 -302
29 -67 131 -76 171 -16 15 23 15 55 2 377 -18 455 -18 441 10 471 47 50 127
41 157 -16 11 -21 18 -106 29 -341 8 -171 15 -320 15 -330 0 -10 13 -32 29
-48 33 -33 75 -38 120 -15 51 27 52 37 36 399 -20 454 -21 432 14 468 55 54
150 30 165 -43 3 -12 12 -186 20 -385 10 -228 20 -371 28 -388 13 -30 55 -55
91 -55 27 0 71 31 87 60 7 12 2 207 -15 592 -14 315 -23 585 -19 600 15 69
112 92 165 39z"/>
<path d="M4035 4314 c-50 -6 -222 -22 -570 -54 -181 -16 -347 -35 -367 -40
-52 -15 -81 -55 -75 -103 11 -81 54 -102 186 -88 53 6 146 15 206 21 61 6 157
15 215 20 58 6 177 17 265 25 286 27 274 25 308 55 27 24 32 35 31 71 -1 35
-8 48 -33 71 -32 28 -67 33 -166 22z"/>
<path d="M3985 3904 c-71 -7 -182 -18 -245 -24 -63 -6 -160 -15 -215 -20 -55
-5 -149 -14 -210 -19 -204 -19 -217 -22 -247 -52 -40 -39 -39 -99 1 -140 19
-18 40 -29 58 -29 15 0 150 11 298 25 373 36 452 43 590 55 150 14 189 24 214
57 23 28 28 82 11 114 -14 25 -62 49 -97 48 -15 -1 -86 -7 -158 -15z"/>
<path d="M3875 3484 c-250 -24 -397 -38 -575 -54 -163 -15 -187 -20 -214 -46
-47 -48 -36 -128 24 -159 29 -15 44 -15 198 0 92 9 212 20 267 25 55 5 148 14
208 20 59 5 155 14 215 20 201 18 214 21 244 51 40 40 39 96 -3 138 -37 38
-34 38 -364 5z"/>
<path d="M1044 4181 c-72 -31 -69 -151 3 -179 44 -17 1065 -28 1104 -12 71 30
77 133 11 176 -22 15 -85 17 -561 20 -322 3 -545 1 -557 -5z"/>
<path d="M1054 3771 c-60 -37 -62 -114 -4 -166 21 -19 38 -20 571 -23 l549 -3
25 25 c13 13 27 36 31 50 8 34 -24 98 -56 112 -17 8 -195 14 -555 18 -510 6
-531 5 -561 -13z"/>
<path d="M1063 3356 c-55 -47 -53 -124 6 -163 24 -16 71 -18 568 -21 l542 -4
31 30 c48 48 38 131 -20 162 -11 6 -230 12 -557 16 l-538 7 -32 -27z"/>
</g>
</svg>
