<?xml version="1.0" encoding="iso-8859-1"?>
<!-- Generator: Adobe Illustrator 19.0.0, SVG Export Plug-In . SVG Version: 6.00 Build 0)  -->
<svg version="1.1" id="Layer_1" xmlns="http://www.w3.org/2000/svg" xmlns:xlink="http://www.w3.org/1999/xlink" x="0px" y="0px"
	 viewBox="0 0 64 64" style="enable-background:new 0 0 64 64;" xml:space="preserve">
<g>
	<g>
		<path d="M52,0h-7h-6H18c-2.757,0-5,2.243-5,5v31.586l-5.707,5.707C7.105,42.48,7,42.734,7,43v21h2V43.414l4-4V48
			c0,0.553,0.447,1,1,1h1c0.266,0,0.519-0.106,0.707-0.293l3-3C18.894,45.519,19,45.266,19,45v-7v-1.5c0-0.827,0.673-1.5,1.5-1.5
			s1.5,0.673,1.5,1.5V45c0,0.266,0.105,0.519,0.293,0.707L25,48.414v8.172l-3.707,3.707C21.105,60.48,21,60.734,21,61v3h2v-2.586
			l3.707-3.707C26.894,57.519,27,57.266,27,57v-2h25c2.757,0,5-2.243,5-5V5C57,2.243,54.757,0,52,0z M40,2h4v6.132l-1.445-0.964
			C42.387,7.056,42.193,7,42,7s-0.387,0.056-0.555,0.168L40,8.132V2z M18,4c-0.553,0-1,0.447-1,1v31.5V38v6.586l-2,2V5
			c0-1.654,1.346-3,3-3h20v2H18z M24.414,45L24,44.586V36.5c0-1.93-1.57-3.5-3.5-3.5c-0.539,0-1.044,0.133-1.5,0.351V6h19v4
			c0,0.369,0.203,0.708,0.528,0.882c0.325,0.174,0.72,0.154,1.026-0.05L42,9.202l2.445,1.63C44.612,10.943,44.806,11,45,11
			c0.162,0,0.324-0.039,0.472-0.118C45.797,10.708,46,10.369,46,10V6h5v39H24.414z M55,50c0,1.654-1.346,3-3,3H27v-5
			c0-0.266-0.106-0.52-0.293-0.707L26.414,47H52c0.553,0,1-0.447,1-1V5c0-0.553-0.447-1-1-1h-6V2h6c1.654,0,3,1.346,3,3V50z"/>
	</g>
</g>
<g>
	<g>
		<path d="M35,8H22c-0.553,0-1,0.447-1,1v13c0,0.553,0.447,1,1,1h13c0.553,0,1-0.447,1-1V9C36,8.447,35.553,8,35,8z M34,21H23V10h11
			V21z"/>
	</g>
</g>
<g>
	<g>
		<path d="M28.5,12c-1.93,0-3.5,1.57-3.5,3.5V19h2v-1h3v1h2v-3.5C32,13.57,30.43,12,28.5,12z M30,16h-3v-0.5
			c0-0.827,0.673-1.5,1.5-1.5s1.5,0.673,1.5,1.5V16z"/>
	</g>
</g>
<g>
	<g>
		<rect x="38" y="13" width="11" height="2"/>
	</g>
</g>
<g>
	<g>
		<rect x="38" y="17" width="4" height="2"/>
	</g>
</g>
<g>
	<g>
		<rect x="44" y="17" width="5" height="2"/>
	</g>
</g>
<g>
	<g>
		<rect x="21" y="25" width="10" height="2"/>
	</g>
</g>
<g>
	<g>
		<rect x="33" y="25" width="16" height="2"/>
	</g>
</g>
<g>
	<g>
		<rect x="38" y="21" width="2" height="2"/>
	</g>
</g>
<g>
	<g>
		<rect x="42" y="21" width="2" height="2"/>
	</g>
</g>
<g>
	<g>
		<rect x="46" y="21" width="3" height="2"/>
	</g>
</g>
<g>
	<g>
		<rect x="21" y="29" width="2" height="2"/>
	</g>
</g>
<g>
	<g>
		<rect x="25" y="29" width="2" height="2"/>
	</g>
</g>
<g>
	<g>
		<rect x="29" y="29" width="2" height="2"/>
	</g>
</g>
<g>
	<g>
		<rect x="33" y="29" width="16" height="2"/>
	</g>
</g>
<g>
	<g>
		<rect x="26" y="33" width="23" height="2"/>
	</g>
</g>
<g>
	<g>
		<rect x="26" y="37" width="17" height="2"/>
	</g>
</g>
<g>
	<g>
		<rect x="45" y="37" width="4" height="2"/>
	</g>
</g>
<g>
	<g>
		<rect x="26" y="41" width="4" height="2"/>
	</g>
</g>
<g>
	<g>
		<rect x="32" y="41" width="17" height="2"/>
	</g>
</g>
<g>
	<g>
		<rect x="32" y="49" width="6" height="2"/>
	</g>
</g>
<g>
</g>
<g>
</g>
<g>
</g>
<g>
</g>
<g>
</g>
<g>
</g>
<g>
</g>
<g>
</g>
<g>
</g>
<g>
</g>
<g>
</g>
<g>
</g>
<g>
</g>
<g>
</g>
<g>
</g>
</svg>
