<?xml version="1.0" standalone="no"?>
<!DOCTYPE svg PUBLIC "-//W3C//DTD SVG 20010904//EN"
 "http://www.w3.org/TR/2001/REC-SVG-20010904/DTD/svg10.dtd">
<svg version="1.0" xmlns="http://www.w3.org/2000/svg"
 width="392.000000pt" height="485.000000pt" viewBox="0 0 392.000000 485.000000"
 preserveAspectRatio="xMidYMid meet">
<metadata>
Created by potrace 1.16, written by Peter Selinger 2001-2019
</metadata>
<g transform="translate(0.000000,485.000000) scale(0.100000,-0.100000)"
fill="#000000" stroke="none">
<path d="M1161 4811 c-51 -18 -90 -54 -557 -523 -488 -489 -503 -505 -518
-558 -15 -50 -16 -225 -14 -1736 l3 -1679 33 -68 c24 -49 48 -79 83 -107 95
-75 -19 -70 1653 -70 l1500 0 -74 75 -74 75 -1436 2 -1435 3 -33 23 c-18 13
-41 41 -52 62 -20 39 -20 65 -20 1684 l0 1645 408 3 c405 3 407 3 460 27 69
31 137 106 157 174 12 41 15 122 15 444 l0 393 1035 0 c1140 0 1085 3 1125
-62 20 -33 20 -45 20 -1798 l0 -1766 75 -74 75 -75 -2 1855 -3 1855 -28 57
c-29 60 -78 106 -144 136 -35 16 -117 17 -1118 19 -1035 2 -1082 2 -1134 -16z"/>
<path d="M1560 3855 l0 -75 790 0 790 0 0 75 0 75 -790 0 -790 0 0 -75z"/>
<path d="M1560 3405 l0 -75 790 0 790 0 0 75 0 75 -790 0 -790 0 0 -75z"/>
<path d="M520 2955 l0 -75 1308 2 1307 3 3 73 3 72 -1311 0 -1310 0 0 -75z"/>
<path d="M2065 2630 c-451 -63 -775 -429 -775 -874 0 -406 268 -752 665 -857
104 -28 307 -30 408 -6 269 66 478 235 596 480 60 125 80 202 88 334 21 364
-186 702 -524 855 -126 57 -326 87 -458 68z m238 -265 c134 -28 270 -112 355
-220 89 -113 135 -245 134 -391 -1 -271 -161 -496 -420 -591 -91 -34 -249 -43
-342 -19 -210 52 -382 205 -450 400 -123 348 76 723 432 816 88 23 199 25 291
5z"/>
<path d="M520 2505 l0 -75 428 0 429 0 78 75 78 75 -507 0 -506 0 0 -75z"/>
<path d="M520 2055 l0 -75 318 0 317 0 17 58 c9 32 20 66 24 75 6 16 -17 17
-335 17 l-341 0 0 -75z"/>
<path d="M520 1605 l0 -75 316 0 316 0 -7 68 c-4 37 -9 70 -12 75 -2 4 -141 7
-309 7 l-304 0 0 -75z"/>
<path d="M520 1105 l0 -75 451 0 450 0 -26 33 c-15 17 -41 51 -58 75 l-31 42
-393 0 -393 0 0 -75z"/>
<path d="M2879 1094 c-109 -106 -116 -117 -92 -141 11 -11 19 -35 19 -60 1
-23 11 -57 22 -75 12 -18 178 -189 369 -380 380 -378 383 -380 468 -357 47 13
180 136 201 186 19 45 17 92 -5 128 -24 40 -697 713 -736 736 -16 11 -47 19
-68 19 -21 0 -49 7 -62 16 -25 16 -26 16 -116 -72z"/>
</g>
</svg>
