<?xml version="1.0" standalone="no"?>
<!DOCTYPE svg PUBLIC "-//W3C//DTD SVG 20010904//EN"
 "http://www.w3.org/TR/2001/REC-SVG-20010904/DTD/svg10.dtd">
<svg version="1.0" xmlns="http://www.w3.org/2000/svg"
 width="303.000000pt" height="248.000000pt" viewBox="0 0 303.000000 248.000000"
 preserveAspectRatio="xMidYMid meet">
<metadata>
Created by potrace 1.16, written by Peter Selinger 2001-2019
</metadata>
<g transform="translate(0.000000,248.000000) scale(0.100000,-0.100000)"
fill="#000000" stroke="none">
<path d="M633 2425 c2 -5 21 -12 43 -15 113 -16 402 -215 571 -393 100 -106
153 -205 192 -357 30 -117 34 -126 49 -116 13 8 -38 203 -73 281 -14 32 -45
85 -69 119 -83 115 -285 294 -442 392 -40 25 -74 48 -74 50 0 14 194 -87 285
-148 90 -61 207 -161 271 -231 124 -136 199 -266 284 -490 l52 -138 -66 -60
c-93 -86 -131 -164 -131 -274 0 -44 4 -92 8 -107 8 -24 6 -28 -16 -33 -15 -4
-37 0 -55 9 -58 30 -100 19 -164 -41 l-36 -35 -57 28 c-58 28 -143 42 -189 30
-52 -13 -104 -73 -120 -138 -5 -21 -3 -28 8 -28 8 0 16 14 20 34 8 42 38 81
79 102 43 23 117 12 196 -28 l64 -32 31 35 c17 20 41 41 53 47 31 17 85 15
112 -5 20 -14 29 -14 58 -4 34 13 36 12 73 -27 73 -75 187 -99 243 -50 l22 19
-30 -8 c-167 -44 -308 101 -274 284 15 81 48 140 113 201 41 39 61 52 75 47
14 -4 23 0 31 15 13 25 33 16 25 -11 -10 -31 14 -86 66 -151 l49 -61 -30 -34
c-47 -53 -73 -113 -74 -166 -1 -44 2 -52 41 -88 25 -23 52 -39 66 -39 32 0 40
-10 23 -29 -37 -44 -58 -178 -36 -235 11 -29 67 -61 128 -71 40 -6 42 -8 42
-41 0 -38 30 -106 64 -142 11 -13 39 -34 61 -45 37 -20 55 -22 215 -22 205 0
270 12 332 59 33 26 49 48 67 97 14 35 31 73 38 84 16 23 17 38 3 33 -6 -2
-26 -39 -45 -83 -63 -147 -113 -169 -382 -167 -210 1 -249 17 -310 119 -34 58
-28 87 17 91 20 2 51 16 73 33 34 28 44 30 95 27 31 -2 63 -6 71 -9 7 -2 16 2
18 8 16 44 -176 36 -260 -11 -42 -24 -50 -25 -96 -15 -65 14 -98 40 -111 91
-19 70 26 209 72 224 13 4 29 15 35 25 28 39 184 50 273 19 66 -23 70 -24 70
-7 0 18 -32 32 -105 47 -83 17 -164 7 -238 -31 -75 -38 -114 -34 -165 17 -32
32 -34 38 -28 79 10 76 71 170 102 158 9 -3 14 2 14 15 0 16 13 25 55 41 48
18 78 21 221 21 128 0 165 3 162 12 -3 9 -43 14 -138 16 -144 3 -225 -9 -279
-39 l-34 -20 -24 23 c-70 64 -116 177 -79 191 13 5 15 11 7 26 -16 29 36 93
101 125 62 30 161 52 166 36 5 -13 42 -13 42 0 0 6 24 10 54 10 49 0 55 -2 58
-22 4 -30 22 -29 26 1 4 23 4 23 92 17 107 -9 185 -28 222 -56 18 -13 29 -16
34 -9 10 16 -6 27 -81 53 -110 38 -413 64 -460 39 -11 -6 -40 -13 -65 -17 -74
-11 -160 -64 -198 -121 -36 -53 -66 -72 -87 -55 -7 6 -31 63 -55 128 -113 313
-242 492 -495 683 -80 61 -236 159 -252 159 -7 0 -13 3 -13 8 0 4 -19 15 -43
24 -49 20 -259 39 -254 23z"/>
<path d="M500 2405 c-20 -25 3 -42 33 -26 29 15 85 -4 232 -80 210 -108 327
-201 434 -344 57 -76 90 -138 151 -279 31 -71 61 -131 68 -134 14 -4 16 22 2
46 -5 9 -21 46 -36 82 -110 271 -230 421 -450 565 -134 87 -343 185 -397 185
-13 0 -30 -7 -37 -15z"/>
<path d="M784 2186 c-37 -16 -69 -55 -84 -102 -14 -42 -21 -42 -43 -4 -10 16
-34 42 -53 57 -65 49 -114 7 -114 -97 0 -100 50 -242 122 -348 l30 -43 -49
-52 c-102 -108 -148 -231 -141 -381 9 -201 108 -296 298 -283 151 10 296 83
414 208 127 134 179 305 127 413 -41 84 -180 182 -248 174 -44 -5 -41 -28 5
-28 28 0 55 -10 99 -39 113 -73 154 -153 133 -258 -35 -168 -159 -317 -327
-394 -169 -78 -348 -67 -418 25 -82 107 -76 327 13 471 35 57 103 125 125 125
10 0 21 8 24 18 3 13 14 18 39 18 38 0 57 18 48 47 -7 23 8 22 29 -3 36 -42
58 -14 27 35 -21 34 -43 44 -54 26 -3 -5 -16 -7 -27 -4 -20 5 -21 3 -17 -26 4
-29 1 -34 -36 -53 l-40 -20 -22 27 c-29 37 -78 136 -101 205 -25 75 -25 208
-1 224 13 8 23 8 35 0 37 -22 83 -97 103 -165 12 -38 28 -73 36 -76 23 -9 25
1 9 40 -20 49 -19 123 4 172 22 48 38 63 79 71 26 5 36 1 61 -23 60 -60 70
-159 34 -331 -15 -70 -12 -102 7 -72 18 29 40 155 40 229 0 97 -14 145 -53
187 -38 40 -71 49 -113 30z"/>
<path d="M415 2154 c-10 -20 -21 -67 -26 -103 -36 -276 -10 -1024 46 -1316 19
-98 52 -212 64 -220 20 -12 19 15 -4 88 -58 188 -88 540 -89 1027 -1 357 8
498 34 524 6 6 10 16 10 23 0 25 -18 13 -35 -23z"/>
<path d="M206 2141 c-12 -18 -36 -159 -51 -295 -38 -335 -6 -929 68 -1266 60
-272 88 -372 105 -378 8 -2 7 12 -3 45 -52 168 -106 457 -135 728 -6 55 -14
226 -17 380 -7 352 8 565 53 768 6 26 -8 38 -20 18z"/>
<path d="M313 2073 c-6 -38 -19 -111 -29 -163 -28 -151 -26 -579 4 -815 52
-418 136 -875 161 -875 16 0 19 13 10 39 -6 14 -22 89 -36 166 -13 77 -33 190
-44 250 -99 554 -115 1005 -48 1337 22 113 23 128 6 128 -8 0 -17 -25 -24 -67z"/>
<path d="M2680 1432 c-14 -11 -20 -24 -16 -31 6 -9 13 -8 27 5 24 22 71 13
130 -25 88 -55 99 -143 34 -277 -31 -63 -32 -71 -19 -89 63 -86 64 -88 64
-144 0 -67 -16 -101 -53 -119 l-28 -13 26 -30 c14 -17 28 -41 31 -55 8 -32 24
-31 24 3 0 15 -10 37 -22 50 l-22 23 26 28 c22 23 27 40 33 112 l6 85 -37 44
-38 43 40 77 c33 64 39 86 39 137 0 79 -32 124 -119 165 -71 34 -95 36 -126
11z"/>
<path d="M650 670 c0 -72 191 -312 364 -459 60 -51 92 -72 107 -69 19 3 14 9
-37 48 -148 111 -374 372 -395 458 -12 43 -39 59 -39 22z"/>
<path d="M847 543 c-4 -3 -7 -16 -7 -28 0 -77 273 -331 363 -338 39 -3 33 15
-10 32 -119 46 -323 247 -323 318 0 22 -10 30 -23 16z"/>
</g>
</svg>
